<svg viewBox="0 0 100 75" fill="none" xmlns="http://www.w3.org/2000/svg"><path d="M84.589 46.542c-1.67-3.063-6.737-3.434-12.986-1.872-4.06 1.168-7.492.945-10.758 4.3-1.197 1.23-.302 3.953-.944 4.732-.641.78-1.814.319-2 .164-1.347-1.436-.92-3.973-.883-5.994.017-.15.05-.288.113-.443a.427.427 0 0 1 .098-.132c.08-.092.158-.184.243-.275a.345.345 0 0 1-.026.02c.237-.213.488-.415.754-.6-.01.006-.018.01-.029.014.048-.024.15-.099.175-.099 1.677-1.078 3.522-1.685 5.295-2.255 6.847-2.202 14.447-.81 19.847-3.87 2.03-1.15 3.508-5.18 3.512-7.669.005-3.444-1.818-10.305-6.751-8.24-3.525 1.95-1.97 3.1-.63 5.155 5.383 8.254-7.15 10.376-10.806 10.752-3.655.377-8.004 1.271-11.162.181l.034.034c-.517-.309-.57-.937-.325-1.573a.26.26 0 0 1-.022.018s.015-.012.022-.02c.034-.149.007-.005.007-.005s.854-1.36 1.392-2.012c1.153-1.497 3.91-4.029 6.135-5.21 2.107-1.342 5.01-2.163 6.606-3.82 1.154-1.998-2.713-1.918-4.796-1.354-2.316.504-4.61 1.759-6.953 1.905a1.604 1.604 0 0 1-.175-.009c-.561-.04-.683-.444-.743-.835-.03-6.977-11.257 3.49-13.615 6.206-3.051 3.754-9.02 9.93-10.029 14.138.881 4.455 9.05-1.745 11.748-3.049.17.343.081.742.043 1.154-.001-.003-.001-.007-.003-.01-.079.407-.202.82-.361 1.23-.04.102-.263.547-.06.164-1.538 3.836-6.979 4.222-10.5 4.781-7 .836-12.69-5.82-13.62-7.564-1.553-2.915.365-8.251-4.349-10.856-2.872-1.588-4.27 4.241-2.716 10.856.816 3.478 5.258 7.564 10.754 10.32 4.955 2.485 10.77 3.888 15.558 2.791 1.413-.22 3.208-.783 4.291-.221.395 1.325-1.809 1.903-3.07 2.181C36.507 61.067 18.63 58 20.161 63.428c.65 4.204 13.46 8.815 15.654 9.38 2.195.566 10.233 1.405 11.511.225 1.825-2.119-15.105-5.399-16.388-7.039-1.284-1.64 8.465-.402 12.66-1.015 3.507-.512 6.815-.65 10.535-1.905 3.72-1.253 20.102-5.122 18.233-1.554-2.853 5.446-17.644 7.77-18.11 11.003-.467 3.233 11.55.513 17.341-2.01 6.016-2.621 11.75-9.013 8.165-15.233-1.628-2.415-7.407-1.584-10.249-.965-2.499.406-5.32 0-5.973-2.273-.554-1.926 10.747-6.009 14.474-4.308 2.661 1.215-2.054 3.958 2.007 5.223 1.455.455 5.96-3.87 4.572-6.414l-.005-.001ZM47.11 37.518c-1.947.755-1.57-.653-1.039-1.456.898-1.25 3.24-3.395 4.442-4.564 1.459-1.42 2.644-1.125 2.404.31-.091.546-.926 1.36-1.478 1.96a41.004 41.004 0 0 1-2.324 2.291c-.53.49-1.187 1.142-2.005 1.459Zm5.904.28c-.467.326-1.193.87-1.811 1.01-1.593.357-1.024-.884-.556-1.529 1.031-1.29 3.993-3.278 5.396-4.453 1.51-1.266 5.162-3.148 4.773-1.842-.388 1.302-6.088 5.622-7.8 6.813l-.002.001ZM25.823 21.252c-.63-.061-1.805-.174-4.51.565-.89.232-2.68.87-3.35 1.303l-.423.271.404.295c.093.067.213.144.365.233.06.036.109.064.138.085 1.7 1.174 2.895 1.39 3.685 1.532.38.068.653.119.862.263.102.07.17.176.19.298.04.249-.115.47-.373.806l-.084.111-1.526 2.102c-.168.238-.399.564-.892.65-.077.015-.159.022-.243.022-.727 0-1.79-.509-3.44-1.649-2.255-1.556-3.434-2.803-3.604-3.808-.102-.605.177-.978.313-1.16l1.276-1.756c.797-1.098 3.303-2.29 8.125-3.865l.801-.261-.752-.374c-1.046-.52-2.202-.646-2.892-.723-.435-.049-.592-.07-.724-.16a.438.438 0 0 1-.19-.298c-.046-.27.133-.524.506-1.029.047-.062.093-.125.138-.188l1.238-1.704c.149-.209.426-.6 1.032-.704.096-.017.2-.024.309-.024.995 0 2.491.696 4.55 2.117 1.842 1.27 2.678 2.12 2.8 2.845.08.482-.16.803-.335 1.038l-1.715 2.36c-.63.867-.971.873-1.68.805l.001.002Zm18.312-10.734c.43-.188.826-.358.94-.66a.467.467 0 0 0-.014-.376c-.061-.127-.123-.257-1.553-.712-1.463-.465-1.718-.35-1.854-.287-.24.11-.515.322-.895.616-.706.547-1.77 1.372-3.377 2.1-1.212.55-1.952.655-2.366.651-.438 0-.738-.13-.867-.374l-.068-.13.048-.138c.123-.354.71-.73 2.166-1.386l.165-.075c.618-.28 1.281-.479 1.72-.61.248-.074.428-.128.537-.177.188-.085.38-.254.792-1.459.426-1.236.404-1.28.336-1.422-.055-.115-.202-.423-1.017-.171a6.603 6.603 0 0 0-.738.284c-1.5.68-2.51 1.354-3.248 1.847-.295.197-.55.367-.763.487a.712.712 0 0 1-.944-.201l-.05-.065-.014-.08c-.11-.616 1.303-1.657 2.735-2.307 1.673-.759 2.622-.923 3.188-1.022.27-.047.465-.08.637-.158.41-.187 1.076-1.525 1.397-2.373.061-.164.102-.303.03-.455a.483.483 0 0 0-.276-.245.598.598 0 0 0-.206-.035c-.245 0-.59.122-1.222.414l-9.91 4.496c-.25.113-.772.35-.398 3.403.164 1.348.518 3.101.874 3.848l.016.031c.236.422.41.784.549 1.075.323.673.495 1 .883 1.135.093.033.19.048.291.048.31 0 .645-.146.937-.283l11.42-5.18.119-.054Zm22.862-6c.102-.896 0-1.49-.316-1.87-.343-.408-.853-.455-1.224-.49l-.145-.014-2.549-.273c-.273-.03-.583-.065-.808.11a.504.504 0 0 0-.193.34c-.016.136.027.239.154.516.204.447.583 1.28.5 2.007-.187 1.668-2.209 3.071-2.893 2.995l-.061-.012c-.261-.072-.7-.472-1.053-1.18a4.885 4.885 0 0 1-.46-2.701c.086-.763.381-1.238.558-1.522.113-.18.172-.28.186-.41.007-.072.023-.438-.47-.593a3.004 3.004 0 0 0-.55-.097l-3.547-.38a1.948 1.948 0 0 0-.443-.014c-.27.035-.456.208-.483.453-.014.125.027.233.074.357.103.272.295.775.184 1.758-.261 2.316-2.417 3.364-3.033 3.364h-.061l-.063-.02c-.466-.164-1.667-1.326-1.406-3.627.11-.98.62-1.56.838-1.808.125-.142.191-.224.207-.362.011-.099.01-.435-.49-.572a3.39 3.39 0 0 0-.478-.08L45.506.021c-.23-.028-.576-.07-.89.172-.444.341-.692 1.133-.883 2.822-.234 2.079 1.142 3.949 2.338 5.152 1.183 1.189 2.702 2.208 3.17 2.258.723.078 1.733-.468 3.187-1.311.832-.482 1.55-.886 1.902-.96l.115-.022.105.047c.327.145.935.691 1.639 1.335 1.196 1.097 2.098 1.879 2.82 1.957h.033c.573 0 2.457-.792 4.027-1.812 1.648-1.073 3.666-2.834 3.927-5.143l.001.002Zm13.758 8.488c-.946-1.118-2.218-2.324-3.587-3.395-4.34-3.395-6.859-3.414-7.695-2.399-.502.61-1.437 1.745 3.492 6.69 1.053 1.058 1.725 1.818 2.056 2.323l.592.91-1.025-.405c-.38-.15-1.203-.545-2.434-1.51-3.54-2.768-3.435-3.993-3.39-4.517.015-.19.032-.387-.088-.575l-.038-.057-.053-.042a2.41 2.41 0 0 0-1.334-.44c-.393 0-.797.128-1.108.506-.63.763-.391 1.957.688 3.454.869 1.205 2.247 2.572 3.88 3.85 2.08 1.626 4.008 2.712 5.575 3.14.512.14.98.211 1.396.211.939 0 1.428-.353 1.672-.65.684-.83.893-2.372-3.607-6.97l-.234-.242c-.433-.444-1.33-1.364-1.829-2.044l-.822-1.121 1.267.609c.29.14.881.456 1.6 1.018 1.439 1.127 2.091 2.16 2.522 2.842.232.369.416.66.647.84.468.366 1.24.446 1.551.464.687.038 1.166-.066 1.357-.296.284-.345-.01-.961-1.055-2.197l.004.003Z" fill="#fff"/></svg>