<svg viewBox="0 0 100 100" fill="none" xmlns="http://www.w3.org/2000/svg"><g clip-path="url(#a)"><path d="m97.026 69.873-.1-.077-.11-.1c-1.308-1.086-3.14-1.28-4.71-1.37a36.98 36.98 0 0 0-6.205.32c-1.963.224-3.916.519-5.88.731-.727.083-1.46.118-2.193.16-.733.041-1.57.194-2.371.3a45.33 45.33 0 0 1-5.99.508c-.481 0-.963 0-1.444-.053-.225 0-.445-.035-.67-.065h-.189l-.33-.059a7.783 7.783 0 0 1-1.251-.348l-.262-.106h-.073a3.954 3.954 0 0 1-.498-.295l-.209-.16v-.03a4.267 4.267 0 0 1-.361-.412v-.047c-.042-.077-.084-.154-.12-.23a4.047 4.047 0 0 1-.22-.59 6.781 6.781 0 0 1-.173-.674c-.026-.106-.042-.212-.063-.318a.503.503 0 0 0 0-.089v-.147a5.14 5.14 0 0 1 0-.59 1.744 1.744 0 0 1 0-.172c0-.035 0-.112.031-.165.032-.053.042-.16.058-.236.016-.077 0-.077.042-.124l.068-.153c.042-.077.089-.154.13-.236.048-.053.09-.112.137-.171.09-.105.187-.203.288-.296l.277-.212c.142-.1.288-.189.44-.277l.22-.112h.052c.184-.077.367-.154.555-.219.356-.118.712-.218 1.047-.3l.524-.113.272-.047h.147c.78-.106 1.57-.165 2.356-.195 1.486-.053 2.973 0 4.46-.088 4.152-.201 8.377-.437 12.424-1.688 3.664-1.133 7.224-3.317 9.146-7.176a19.914 19.914 0 0 0 1.748-7.312c.176-3.21.095-6.432-.24-9.626-.377-4.561-.582-9.347-2.424-13.531-.608-1.387-1.665-3.063-3.215-2.951-2.052.147-3.178 2.95-3.838 4.798-1.183 3.287-1.047 6.981-.68 10.433.1.939.215 1.877.33 2.81 0 .2.047.4.073.59 0 .094 0 .194.037.295a.807.807 0 0 1 0 .112v.03c.047.407.094.814.136 1.221.192 1.528.247 3.074.162 4.615 0 .082-.037.336-.037.366 0 .141-.036.277-.063.419a9.77 9.77 0 0 1-.209.944c-.047.153-.1.301-.146.448-.032.077-.063.16-.1.237-.13.275-.276.54-.434.796l-.131.171c-.1.13-.204.248-.314.366l-.184.183-.094.089-.105.082c-.068.06-.141.112-.214.166a6.92 6.92 0 0 1-.88.537l-.068.03-.251.105a9.421 9.421 0 0 1-.566.213c-1.947.649-3.837.59-5.92.62-2.084.029-4.189.153-6.314.088a20.526 20.526 0 0 1-3.173-.307c-.498-.093-.991-.22-1.477-.377-.4-.123-.79-.289-1.162-.496a6.485 6.485 0 0 1-.586-.39 1.658 1.658 0 0 1-.393-.342c-.068-.065-.125-.136-.188-.207l-.032-.035a8.884 8.884 0 0 1-.303-.549 12.008 12.008 0 0 1-.98-3.004c0-.124-.046-.253-.067-.377v-.897l.047-.19.11-.377c.084-.295.172-.59.277-.867l.142-.343c.079-.176.166-.347.261-.513.042-.077.09-.154.136-.23l.047-.083s0 .041 0 0c.126-.153.252-.3.388-.443l.031-.04h.032c.083-.07.17-.134.261-.19l.163-.1.225-.089.288-.082H66.525c.251-.024.503-.024.754 0a5.8 5.8 0 0 1 1.2.354c3.418 1.38 6.617 3.281 10.198 4.514 1.413.484 3.073 1.027 4.56.62a1.9 1.9 0 0 0 1.189-.756c.302-.405.464-.921.454-1.451a6.457 6.457 0 0 0-.748-2.36c-.476-.94-1-1.846-1.57-2.715-1.65-2.62-3.472-5.105-5.315-7.554a275.562 275.562 0 0 0-6.853-8.681 367.763 367.763 0 0 0-7.068-8.38c-1.942-2.243-3.91-4.462-5.942-6.61a34.974 34.974 0 0 0-5.099-4.562c-1.104-.779-2.539-1.87-3.91-1.77-1.241.106-1.765 1.263-1.901 2.514-.115 1.074-.047 2.166-.147 3.246v.183c-.026.153-.047.3-.073.448a7.585 7.585 0 0 1-.215.844V8.9c0 .042-.036.089-.057.13a5.27 5.27 0 0 1-.215.431c-.078.136-.068.112-.1.165-.099.112-.188.236-.293.348l-.151.148c-.136.094-.262.195-.403.277l-.21.118a4.138 4.138 0 0 1-.497.171h-.163c-.144.01-.29.01-.434 0a3.41 3.41 0 0 1-.424 0H42.804a20.262 20.262 0 0 1-4.539-1.646l-.45-.218-.655-.319-1.282-.643-2.65-1.358a49.033 49.033 0 0 0-5.235-2.36 10.143 10.143 0 0 0-4.455-.815c-1.141.124-2.393.59-3 1.77-1.047 2.001.361 4.48 1.393 6.085a52.328 52.328 0 0 0 6.14 7.513c2.508 2.661 5.116 5.205 7.744 7.713 2.094 2.03 4.277 4.019 6.355 6.102.613.59 1.194 1.245 1.77 1.894.278.313.566.59.833.939.115.136.23.277.34.425l.157.206c.036.056.074.109.115.16l.073.118c.047.076.1.147.147.23.047.082.162.271.236.413.067.12.128.244.183.372.036.07.1.248.115.289.061.193.114.39.157.59a.58.58 0 0 1 0 .1v.366c-.027.09-.047.183-.058.278a.786.786 0 0 1-.026.082c-.031.071-.063.148-.1.218a.917.917 0 0 1-.078.113l.053-.053c-.069.07-.126.17-.194.247-.068.077-.131.142-.2.213l-.078.077a5.852 5.852 0 0 1-.523.383l-.325.189-.152.077c-1.08.45-2.2.773-3.34.962l-.34.053-.445.065a38.87 38.87 0 0 1-1.047.112c-.723.065-1.44.1-2.162.124-1.57.041-3.09 0-4.628-.1a58.489 58.489 0 0 1-2.262-.201l-1.146-.136-.524-.07-.257-.042h-.136a38.803 38.803 0 0 1-3.88-.78 24.483 24.483 0 0 1-1.601-.477l-.675-.248-.315-.13-.094-.047a8.995 8.995 0 0 0-.968-.631l-.22-.177-.105-.089-.424-.407a10.392 10.392 0 0 1-.811-.962l-.173-.242-.058-.089c-.12-.183-.235-.365-.345-.554a15.557 15.557 0 0 1-.597-1.151 11.52 11.52 0 0 1-.257-.59c-.052-.112-.1-.23-.146-.349l-.058-.153v-.03a24.241 24.241 0 0 1-.806-2.738 38.765 38.765 0 0 1-.88-6.06c-.162-2.155-.22-4.32-.225-6.492 0-3.712.21-7.436.09-11.148-.069-1.977-.247-4.184-1.304-5.836C14.008 1.067 13.342.496 12.57.19a3.484 3.484 0 0 0-2.393-.072C8.545.703 7.12 1.855 6.104 3.411c-1.011 1.448-1.68 3.162-1.942 4.98-.686 4.498-.042 9.201.702 13.633.712 4.232 1.701 8.386 2.617 12.559.354 2.02.88 3.995 1.57 5.9.786 1.924 1.996 3.588 3.514 4.834 2.931 2.396 6.806 2.762 10.303 2.756 1.995 0 3.99-.142 5.984-.254a84.547 84.547 0 0 1 5.994-.106c3.864.06 7.853-.33 11.518 1.234.154.063.305.138.45.224.204.106.403.23.602.36.2.13.34.242.524.377l.089.083c.084.089.173.171.251.26l.236.271.13.177.1.16c0 .047.047.094.079.141V51.077c.036.142.078.277.104.419.036.15.064.301.084.454 0 .083.026.166.037.248v.089c.036.43.073.861.094 1.292a31.72 31.72 0 0 1 0 2.91c-.042.973-.079 2.089-.157 3.127-.037.49-.079.974-.126 1.458 0 .23-.047.466-.073.696v.113l-.047.348a15.292 15.292 0 0 1-.356 1.959s-.032.106-.047.171c-.016.065-.047.112-.063.142-.136.265-.298.52-.45.779l-.189.33-.126.2c-.218.31-.51.544-.842.674l-.115.065a2.736 2.736 0 0 1-.44 0 2.316 2.316 0 0 1-1.047-.248 2.226 2.226 0 0 1-.571-.431.297.297 0 0 1-.052-.065c0-.047-.058-.118-.074-.142a4.05 4.05 0 0 1-.13-.554c0-.042-.032-.201-.037-.236-.005-.036 0-.248-.026-.313a17.882 17.882 0 0 1 0-1.588c.047-.963.047-1.928 0-2.891-.205-2.461-2.718-3.79-4.623-4.226-2.298-.531-4.712-.372-7.031-.313-2.754.071-5.476 0-8.225-.135-1.9-.1-3.806-.118-5.706-.124a19.049 19.049 0 0 0-7.33 1.18c-2 .787-3.84 2.017-5.413 3.617-1.572 1.6-2.845 3.539-3.743 5.701a21.234 21.234 0 0 0-1.493 7.011c-.089 1.948-.246 3.89-.335 5.837-.204 4.414-.282 9.247 1.403 13.349.738 1.832 2.004 3.33 3.592 4.249 1.314.773 2.848 1.233 4.256.496 1.189-.59 1.87-1.983 2.288-3.317.459-1.609.72-3.28.775-4.969.204-3.257 0-6.491-.058-9.76 0-2.125-.125-4.244 0-6.369 0-.236.037-.478.058-.714 0-.118 0-.23.042-.348.042-.118 0 0 0 0l.031-.23a14.47 14.47 0 0 1 .613-2.668c.01-.04.025-.08.042-.117.031-.089.068-.178.104-.266.084-.195.173-.39.273-.59.099-.2.183-.348.282-.514l.12-.189.152-.212c.25-.324.521-.626.812-.903l.105-.1.235-.189c.173-.142.356-.266.524-.39a8.09 8.09 0 0 1 1.1-.59c1.795-.773 3.716-.956 5.606-1.221 3.932-.555 7.953-1.127 11.921-.785l.628.065.304.041h.173c.382.07.77.148 1.151.254.333.096.66.214.98.354l.308.16c.142.082.278.176.409.27l.094.072.078.076c.1.106.189.224.289.33.031.064.066.125.104.184.026.059.053.13.084.188v.06c0 .118.047.23.073.354v.247c0 .042 0 .089-.031.136-.032.047-.047.112-.058.13v.03l-.167.183-.063.053a2.642 2.642 0 0 1-.21.135l-.151.083-.215.089a6.232 6.232 0 0 1-1.047.277h-.047l-.236.03-.466.04h-.68c-2.094-.04-4.188-.59-6.283-.961-2.167-.39-4.371-.714-6.539-.177-1.617.395-3.46 1.292-4.596 2.697-1.76 2.16-2.278 5.364-2.55 8.18a43.012 43.012 0 0 0 .356 10.504c.424 2.815 1.094 5.901 2.618 8.262.589 1.014 1.463 1.777 2.481 2.166.51.146 1.041.168 1.559.067a3.503 3.503 0 0 0 1.446-.658 7.086 7.086 0 0 0 1.882-2.031 8.012 8.012 0 0 0 1.045-2.69c.325-1.83 0-3.623-.225-5.44v-.06c0-.094 0-.189-.026-.277 0-.2-.032-.396-.042-.59-.01-.195 0-.355 0-.532v-.26a.84.84 0 0 1 0-.111c.023-.172.056-.341.1-.508 0-.082.046-.16.073-.242a.059.059 0 0 0 0-.03.236.236 0 0 0 0-.052c.078-.154.157-.307.246-.455l.047-.059c.068-.082.136-.171.21-.248l.203-.212.048-.047.052-.042c.191-.153.39-.293.597-.419.469-.285.962-.518 1.47-.696 1.11-.39 2.252-.649 3.409-.773 5.293-.632 10.628.13 15.931.065 3.141-.036 6.282-.207 9.424-.2 2.476 0 4.942.3 7.413.253 4.225-.071 8.44-.59 12.67-.59 1.088 0 2.182 0 3.271.076.952.05 1.901.155 2.843.313.86.15 1.706.382 2.529.697l.267.106.178.082.215.107.277.153c.314.181.61.399.885.65.149.148.288.308.419.477l.11.148.162.271c.1.19.188.378.272.59l.047.095a.41.41 0 0 0 0 .076l.11.36c.058.213.105.425.152.638 0 .112.037.218.058.33l.036.248c.052.468.08.94.084 1.41.037 2.043-.225 4.067-.23 6.109 0 1.84.235 3.853 1.44 5.217 1.046 1.21 2.879 2.077 4.397 1.681 1.387-.36 2.199-1.77 2.66-3.204a19.43 19.43 0 0 0 .764-4.957c.084-1.523.068-3.045.042-4.568 0-1.682.057-3.346.126-5.016.109-3.99.188-9.348-2.964-12.175ZM65.29 49.39c-.042-.053-.053-.082 0 0ZM46.495 66.592h-.068.031c.053-.035.084-.012.021 0h.016Zm13.56-37.18c-.875.414-2.226-.117-3.074-.395-3.11-1.015-7.073-2.56-8.743-5.954-1.67-3.393 1.016-6.332 3.984-4.65 2.754 1.558 4.88 4.13 7.24 6.279 1.153 1.15 2.86 3.67.592 4.733v-.012Zm.958-4.384a27.693 27.693 0 0 1-2.78-3.033c-.676-.874-1.676-2.007-1.875-3.193-.523-3.128 2.382-4.043 4.136-2.036 1.44 1.658 2.445 3.67 3.586 5.583.686 1.269 1.33 3.93-.774 4.054-.885.065-1.644-.767-2.293-1.363v-.012Z" fill="#fff"/></g><defs><clipPath id="a"><path fill="#fff" d="M0 0h100v100H0z"/></clipPath></defs></svg>
