<svg width="100" height="93" viewBox="0 0 100 93" fill="none" xmlns="http://www.w3.org/2000/svg">
<g clip-path="url(#clip0_792_811)">
<path d="M86.2319 29.2308C87.9828 29.7786 89.729 30.3357 91.5875 30.1297C106.924 30.1812 97.7904 15.5892 91.5594 18.3418C89.0782 19.8212 87.9594 23.3135 84.8931 23.894C84.4905 23.894 84.6356 23.6038 84.6122 23.4259C84.9633 21.4035 87.2197 20.7341 88.7178 19.545C92.0509 16.4599 86.8452 11.7504 83.3528 12.7241C76.9065 14.1941 79.9588 18.9785 78.0628 22.4662C76.223 23.8987 73.6061 23.2246 71.5416 24.1562C69.0277 25.1533 67.642 27.7843 65.1327 28.7721C61.6076 29.802 62.4456 25.275 64.3884 23.9736C67.4032 22.6019 70.8675 22.5692 73.9245 21.249C79.177 19.3764 77.5807 15.1632 73.5312 13.0706C70.3713 11.2916 66.8134 10.3038 63.4381 9.01176C56.8841 6.13268 50.3301 2.9259 43.5748 0.449422C40.4944 -0.922237 33.7016 0.716263 37.3625 4.92019C38.0413 5.72539 38.9401 6.39016 39.413 7.34049C39.4277 7.42032 39.4497 7.49866 39.4785 7.57456C39.4835 7.69589 39.4709 7.81731 39.4411 7.93503L39.3708 8.01929C39.3334 8.05675 39.324 8.08951 39.2866 8.12696C38.2988 8.65128 36.1828 8.27209 34.7549 7.92098C30.8647 6.9847 27.1664 5.27598 23.1216 5.05595C17.7005 4.02603 13.4076 8.46871 17.5741 13.1501C23.8566 20.0318 41.6039 23.0139 45.5129 30.6353C45.6489 31.0201 45.6314 31.4426 45.464 31.8148C45.2966 32.1871 44.9922 32.4806 44.614 32.6343C41.8333 34.0808 38.252 33.5471 35.401 32.3112C30.3918 30.3731 32.3627 25.4155 28.4678 23.2667C26.8274 22.3385 24.9038 22.0437 23.0607 22.4381C21.4737 22.8454 19.6292 24.5728 20.2519 26.3564C20.8745 28.1401 22.9624 28.5661 23.8425 30.0735C24.2404 30.771 24.7788 31.6511 24.5167 32.4704C21.4597 32.6623 21.0056 28.2852 18.501 27.171C12.9816 23.9549 5.92671 29.9799 12.3824 34.5162C15.1304 35.8785 18.3465 36.0283 21.1835 37.194C21.1835 37.194 21.4129 37.2876 21.4644 37.3204C19.6948 38.2801 17.8784 37.2969 16.0807 37.531C15.6962 37.6512 15.352 37.8745 15.0854 38.1766C14.8188 38.4786 14.6401 38.8479 14.5686 39.2444C13.5808 43.4296 18.7819 46.0325 22.3304 45.1664C23.8894 44.7451 24.5494 43.3922 25.4061 42.1703C27.6579 39.324 31.7869 38.3269 35.2933 38.266C40.7565 38.3643 46.4819 40.5693 49.4687 45.3537C52.4039 48.7992 51.037 53.6773 48.9584 57.2024C48.2047 58.4945 46.805 60.4794 45.5129 60.4794C44.0195 59.7397 47.4276 56.5049 47.8536 55.5498C51.6502 49.9321 48.0268 42.9755 41.8895 41.1498C35.1154 38.589 29.1232 39.3334 24.8444 45.6018C22.4709 49.1784 17.2324 48.2609 14.9619 45.0588C13.9179 43.7339 13.0893 42.1235 11.5491 41.3136C4.92958 38.2988 0.486888 46.7675 0.121736 52.3103C-0.472805 58.0216 0.805241 65.1515 6.63362 67.6841C11.315 69.4443 17.7145 71.2092 21.9185 67.5905C24.3247 65.2498 25.0878 61.8698 26.0194 58.7847C27.04 55.4469 28.2478 51.9873 30.5557 49.3048C32.2457 47.3808 35.2371 46.5521 37.3812 48.0502C40.5833 50.8591 40.588 56.121 39.0385 59.8989C38.149 61.7715 36.7586 63.3304 36.0049 65.2732C33.6642 71.8927 39.544 73.3627 44.8247 72.8243C46.1776 72.7915 48.3124 72.5996 49.0661 73.873C49.4734 76.9627 43.0364 78.2922 41.1076 80.2678C38.0928 82.4681 39.1649 85.4735 42.6666 86.0915C50.6999 88.1373 58.7192 90.2111 67.01 91.0632C70.816 91.3113 75.0386 93.872 78.7136 92.3412C81.9906 90.0332 81.9906 83.8584 82.3323 80.1695C82.674 76.4805 80.6283 74.2053 76.9346 75.7502C73.4657 77.2904 70.0201 79.4953 66.0316 78.8587C64.2854 78.5965 62.1647 78.105 61.2893 76.3869C60.7697 75.1416 61.3876 73.5406 62.1507 72.5809C64.2479 70.5913 67.5343 72.2391 69.8469 73.0771C77.576 77.487 81.0075 67.216 83.1422 61.6919C84.0785 59.6367 85.2535 57.7127 86.3349 55.7371C89.1017 51.1399 92.3131 42.0907 84.3781 41.014C81.1292 40.4054 77.5994 38.8418 74.3037 39.956C67.5999 42.7976 75.5676 58.8596 68.9762 58.7566C68.0399 58.6068 68.0399 57.3522 67.979 56.5236C67.8433 52.9891 69.6035 49.5763 68.7749 46.0372C68.1008 42.7602 64.9876 40.4195 64.2854 37.2361C64.2518 37.0502 64.256 36.8595 64.2979 36.6753C64.3397 36.4911 64.4183 36.3172 64.5288 36.164C67.4454 33.9357 70.9283 35.8644 73.241 31.5388C73.7466 30.7664 74.1164 29.7224 74.9497 29.3292C79.6592 28.9078 81.1245 35.2278 84.5185 37.4468C87.4304 39.7641 93.0575 39.1508 93.6099 34.8767C93.7101 34.4614 93.7177 34.0291 93.6322 33.6106C93.5466 33.192 93.3701 32.7974 93.115 32.4548C92.8599 32.1121 92.5325 31.8298 92.156 31.6278C91.7796 31.4258 91.3633 31.3091 90.9368 31.286C89.0221 30.8179 85.2395 31.1128 84.4343 29.5305C84.4343 29.287 84.4015 29.2262 84.5466 29.0623C85.1135 28.9718 85.6942 29.0299 86.2319 29.2308ZM21.9512 37.0863C21.9512 37.0863 21.9559 37.0722 21.9512 37.0863V37.0863ZM21.9512 37.6153C21.9653 37.6949 21.9559 37.6949 21.9278 37.6153H21.9512ZM22.0027 37.6621C22.0261 37.7323 22.0074 37.6949 21.9793 37.6621H22.0027ZM45.1384 59.8661C45.1384 59.8334 45.1384 59.8099 45.1384 59.8661V59.8661ZM60.8773 16.4599C60.3343 17.1153 59.0703 17.3072 58.2979 17.4664C55.4656 18.0516 51.7438 18.618 49.1831 16.9327C46.6224 15.2474 47.6382 12.0687 50.5875 12.0079C53.3402 11.9564 55.9665 12.8599 58.6349 13.4123C59.9457 13.726 62.2537 14.7793 60.8539 16.4599H60.8773ZM62.3333 12.991C60.8165 13.726 55.1379 11.8019 54.0237 10.5566C52.4508 8.58575 54.4123 6.72722 56.5423 7.40603C58.2932 7.96312 59.8193 8.96026 61.4438 9.82164C62.4362 10.4255 63.9296 12.0266 62.3098 12.991H62.3333Z" fill="white"/>
</g>
<defs>
<clipPath id="clip0_792_811">
<rect width="100" height="92.8561" fill="white"/>
</clipPath>
</defs>
</svg>
