<svg width="100" height="93" viewBox="0 0 100 93" fill="none" xmlns="http://www.w3.org/2000/svg">
<g clip-path="url(#clip0_792_812)">
<path d="M92.1543 20.5739C90.0141 20.434 87.881 20.9395 86.0313 22.0251C84.0839 23.0924 82.4642 24.89 80.7603 26.3927C79.1675 27.875 77.3526 29.0991 75.3815 30.0206C75.2338 30.0899 75.0756 30.1342 74.9134 30.1517C74.9148 30.1267 74.9148 30.1017 74.9134 30.0768C74.9134 30.0768 74.9509 29.9176 74.9556 29.9083C75.0613 29.6849 75.1899 29.4731 75.3394 29.2763C77.2119 26.6782 80.882 25.6203 82.7778 23.4388C83.6017 22.5026 84.332 21.4259 83.7749 20.0028C83.486 19.3573 83.0086 18.8143 82.4054 18.445C81.8022 18.0757 81.1014 17.8975 80.3951 17.9337C76.7812 17.9759 73.2562 21.1357 71.6412 24.0193C70.929 25.3779 70.293 26.7751 69.736 28.2043C69.5063 28.7609 69.2436 29.3033 68.9495 29.8287C68.8231 30.0534 68.6781 30.2968 68.5236 30.5028C68.5236 30.47 68.121 30.9709 68.1912 30.9007C67.3677 31.647 66.4162 32.2386 65.3824 32.6468C64.2006 33.1248 63.0471 33.6703 61.9277 34.2805C59.9288 35.5023 58.5105 37.5059 56.6239 38.9009C56.0154 39.369 55.3787 39.6031 55.2196 38.9711C55.0604 38.3391 55.6549 37.3093 56.0996 36.6305C56.2213 36.4479 56.3477 36.2794 56.4835 36.1109L56.6942 35.8674L56.7363 35.8206H56.7644C56.8393 35.7551 56.9142 35.6989 56.9937 35.6381L57.0733 35.5819L57.2091 35.4976C57.7053 35.1934 58.2109 34.9733 58.8101 34.6269C60.4251 33.6907 62.0869 32.7778 63.6598 31.8182C65.3825 30.7602 67.3158 29.515 68.341 27.8907C69.2023 26.4863 69.9139 24.6138 68.5844 23.1252C67.3439 21.7208 65.4901 21.0935 63.7628 20.4054C61.9578 19.6373 60.3554 18.4611 59.0816 16.9694C56.6052 14.2777 54.1663 11.2349 51.5448 8.54322C49.9485 6.9048 48.268 5.30851 46.5734 3.75435C44.9865 2.29381 43.4276 0.805182 41.5317 0.201306C37.2344 -1.16561 37.0658 5.90302 37.9646 8.45428C38.4889 9.9429 39.4345 11.3379 40.2631 12.7095C40.6048 13.2806 40.9465 13.8798 41.1993 14.4556C41.2696 14.6101 41.3398 14.7692 41.4053 14.9237C41.4053 14.9237 41.5926 15.4293 41.5036 15.1625C41.6088 15.4242 41.6735 15.7004 41.6955 15.9817V16.0332V16.08C41.6955 16.1455 41.6955 16.2064 41.6955 16.2672C41.6955 16.3281 41.6955 16.3936 41.6955 16.4498C41.6934 16.4637 41.6934 16.478 41.6955 16.4919C41.6871 16.5194 41.6761 16.546 41.6628 16.5715C41.6347 16.623 41.6019 16.6745 41.5738 16.7166C41.5081 16.7734 41.4358 16.8221 41.3585 16.8617C41.1619 16.9694 41.2649 16.9226 41.087 16.9507C40.9313 16.9657 40.7745 16.9657 40.6189 16.9507C40.252 16.9372 39.8885 16.8758 39.5375 16.7681C37.328 16.0332 35.4789 14.6709 33.5737 13.3508C32.7544 12.7797 31.9165 12.1946 31.0739 11.6515C30.2645 11.1635 29.4158 10.7439 28.5367 10.397C26.4114 9.46074 23.8133 8.21554 21.5149 9.03943C19.0198 9.92886 19.7454 13.6551 20.6348 15.4995C22.0391 18.4253 24.6278 20.7097 27.0621 22.7694C29.4963 24.8292 31.9446 26.6548 34.4116 28.5414C36.593 30.2079 38.7651 32.0335 40.9278 33.6486C42.7488 35.0061 44.7852 36.2794 46.3908 37.9787C47.048 38.6734 47.6185 39.4452 48.0901 40.2771C48.2384 40.539 48.3562 40.817 48.4412 41.1057C48.4686 41.1964 48.4905 41.2886 48.5067 41.3819C48.5231 41.4606 48.5231 41.5419 48.5067 41.6207C48.4861 41.7285 48.4396 41.8298 48.3709 41.9156C48.2854 42.0119 48.18 42.0885 48.062 42.1403C47.7186 42.2627 47.3494 42.2949 46.99 42.2339C46.4894 42.1604 46.0049 42.0021 45.5575 41.7658C44.8117 41.4367 44.1127 41.0101 43.4791 40.4972C42.61 39.7357 41.8854 38.8239 41.3398 37.8055C40.7194 36.6298 39.9431 35.5433 39.0319 34.5754C37.4544 32.9276 34.6878 31.1207 32.2348 31.3875C32.0104 31.4177 31.7967 31.5017 31.6117 31.6323C31.4268 31.7629 31.2762 31.9363 31.1728 32.1377C31.0693 32.3391 31.0161 32.5625 31.0176 32.7889C31.0191 33.0153 31.0754 33.2379 31.1816 33.4379C31.7246 34.5895 32.9277 35.4087 33.9903 36.1343C34.8509 36.7022 35.6564 37.3495 36.3964 38.0676C36.6669 38.3311 36.9043 38.6267 37.1033 38.9477C37.1548 39.0366 37.2624 39.2707 37.2624 39.2707C37.2932 39.3644 37.309 39.4623 37.3092 39.5609C37.3092 39.5984 37.3092 39.5984 37.3092 39.589C37.2308 39.6081 37.1489 39.6081 37.0705 39.589C36.5456 39.4778 36.0487 39.2612 35.61 38.9524C34.5844 38.1487 33.619 37.2709 32.7217 36.3262C31.3964 35.0914 29.8865 34.0711 28.2464 33.3021C26.7033 32.5617 25.0463 32.087 23.3452 31.8978C21.6131 31.7105 17.8682 32.4642 19.4739 35.0529C20.382 36.5228 22.0017 37.4403 23.481 38.2034C24.2695 38.5632 25.0869 38.856 25.9245 39.0788C28.0358 39.7294 30.1938 40.324 32.3144 40.9512C32.7544 41.0823 33.1851 41.2181 33.6017 41.3538L34.1588 41.5364L34.4116 41.6253L34.5661 41.6815L34.7954 41.7751C34.6597 41.7751 34.5146 41.7751 34.2805 41.7751C33.0543 41.7806 31.8327 41.6232 30.6479 41.307C29.5291 41.0355 28.12 40.778 27.1182 41.4053C26.1165 42.0326 26.5331 43.2169 27.4085 43.9566C29.501 45.7214 33.026 46.0631 35.7083 45.8946C36.5331 45.8652 37.3316 45.5969 38.0067 45.1222C38.4934 44.7258 39.0282 44.3923 39.5984 44.1298C40.4795 43.8446 41.397 43.687 42.3228 43.6617C43.0788 43.6027 43.8386 43.6105 44.5932 43.6851C45.7146 43.8033 46.8098 44.1005 47.8373 44.5651C48.5532 44.8607 49.1748 45.3463 49.6349 45.9695C49.8769 46.2582 50.0713 46.5838 50.2107 46.9338C50.3162 47.3374 50.3162 47.7614 50.2107 48.165C50.0285 49.0444 49.6597 49.8745 49.1293 50.5992C49.0153 50.7561 48.8816 50.8977 48.7314 51.0205C48.6144 51.1141 48.5442 51.1282 48.4693 51.072C48.4369 51.052 48.4121 51.0219 48.3985 50.9864C48.385 50.9509 48.3835 50.9119 48.3944 50.8754C48.4468 50.6652 48.5288 50.4634 48.6378 50.2762C48.8484 49.8783 49.1059 49.56 49.2932 49.251C49.4775 48.96 49.6209 48.645 49.7191 48.3148C49.848 47.9192 49.8691 47.4964 49.7802 47.0899C49.6914 46.6834 49.4958 46.308 49.2136 46.0023C48.5255 45.3764 47.692 44.9323 46.7887 44.7102C45.4455 44.2837 44.0272 44.1465 42.6271 44.3077C41.6172 44.4428 40.6402 44.76 39.7435 45.2439C38.9758 45.6231 38.3625 46.1801 37.445 46.5921C36.1786 47.1124 34.8154 47.3551 33.4473 47.3036C31.8699 47.2818 30.3106 46.9643 28.8503 46.3674C26.0416 45.258 23.8601 43.2544 20.9344 42.5335C18.4261 41.9538 15.8308 41.8537 13.2853 42.2386C11.1022 42.5477 9.0002 43.2791 7.09673 44.3919C4.02586 46.2082 1.12351 48.7829 0.308976 52.3219C-0.416612 55.4864 0.135771 58.4075 2.18146 60.8464C4.34886 63.4164 8.03764 64.6569 11.469 64.8863C15.2139 65.1344 18.9589 64.6709 22.643 63.9968C25.8191 63.4873 28.8461 62.2924 31.5139 60.4953C33.5276 59.0307 35.2998 57.2601 36.7662 55.2477C37.8055 53.8433 38.5826 52.2564 39.575 50.7865C40.3702 49.5034 41.424 48.4002 42.6692 47.5471C43.5645 46.9588 44.6392 46.7067 45.7027 46.8355C45.982 46.8858 46.2404 47.0175 46.4452 47.2141C46.6501 47.4106 46.7924 47.6632 46.8542 47.9403C47.0022 48.6432 46.9403 49.3741 46.6764 50.0421C46.4951 50.5724 46.2499 51.0786 45.9461 51.5495C45.5295 52.2095 44.9677 52.9539 44.4341 53.8573C43.4978 55.3928 42.5382 57.6959 43.3714 59.2969C43.9285 60.3736 45.3656 60.5561 46.5078 60.4251C47.0321 60.3642 47.5985 60.294 48.1275 60.2706C48.4575 60.2656 48.7794 60.3729 49.0404 60.5749C49.1427 60.6606 49.2311 60.7617 49.3025 60.8745C49.3616 60.9786 49.4103 61.0884 49.4476 61.2022C49.5075 61.4215 49.5296 61.6495 49.5132 61.8763C49.4725 62.3225 49.3685 62.7607 49.2042 63.1776C48.869 64.0335 48.3477 64.8042 47.6781 65.434C46.3072 66.7809 45.0279 68.2182 43.8489 69.736C43.1161 70.7649 42.5753 71.9179 42.2526 73.1392C41.8331 74.5931 41.9545 76.1496 42.5944 77.5209C42.8018 77.8949 43.0934 78.2154 43.4463 78.4571C44.147 78.9474 44.8895 79.375 45.6652 79.7351C47.2568 80.6432 48.8297 81.6075 50.4026 82.5438C53.8364 84.5763 57.4851 86.2217 61.2817 87.4497C64.9704 88.5291 68.5701 89.8923 72.0485 91.527C74.052 92.5194 78.0919 94.3358 78.9533 90.9325C79.2198 89.6788 79.2768 88.3896 79.1218 87.1173C78.9814 85.5117 78.7801 83.9107 78.5039 82.3331C77.9867 79.3182 77.2482 76.3454 76.2944 73.4388C75.9109 72.2858 75.3706 71.1911 74.6887 70.1854C73.832 68.9355 72.54 67.7465 71.1825 67.3767C70.0451 67.0025 68.8115 67.0474 67.7044 67.5031C66.779 67.9549 65.7985 68.2838 64.7879 68.4814C62.8171 68.7623 60.8463 68.0835 59.1705 67.3018C58.3825 66.8888 57.7075 66.2894 57.2044 65.5557C56.6635 64.7648 56.3244 63.8535 56.2167 62.9014C56.0669 61.8575 56.123 60.631 56.446 60.1255C56.769 59.6199 57.3495 59.6574 57.9393 59.8165C59.8446 60.3595 61.5345 62.1571 63.0887 63.2198C66.5153 65.5604 69.1415 63.9313 69.8998 59.9429C70.1854 58.4543 70.2556 56.769 70.9812 55.7298C72.1983 53.9884 75.0445 52.4202 76.8842 50.6367C78.415 49.1574 80.2641 46.2363 77.9422 44.4902C75.7607 42.8471 72.3247 43.2076 69.7266 43.128C67.0913 42.9781 64.4475 43.0894 61.8341 43.4604C60.5889 43.671 59.2314 44.4247 58.8054 45.6793C58.4871 46.6155 58.693 47.5517 58.9271 48.5582C59.0254 48.9795 59.0956 49.4102 59.1798 49.8643C59.2641 50.3183 59.3952 50.9456 59.0769 51.3435C58.8381 51.6431 57.9206 51.6899 57.4338 51.395C56.9469 51.1001 56.8205 50.3652 56.755 50.0468C56.6642 49.4028 56.7121 48.7468 56.8954 48.1229C57.0546 47.5168 57.0169 46.8758 56.7878 46.2925C56.3992 45.4218 55.4162 44.8226 55.0136 44.097C54.9287 43.9662 54.8715 43.8193 54.8458 43.6655C54.82 43.5117 54.8261 43.3542 54.8638 43.2029C54.9159 43.0865 54.9925 42.9827 55.0885 42.8986C55.3136 42.7149 55.5664 42.568 55.8375 42.4633C56.4929 42.173 57.3121 41.9952 58.1781 41.6581C59.1105 41.2502 59.9475 40.6524 60.6357 39.9026C61.2086 39.2003 61.8346 38.543 62.5082 37.9365C62.8411 37.6769 63.2277 37.4947 63.6399 37.4032C64.0521 37.3117 64.4794 37.3132 64.891 37.4076C66.3374 37.7821 67.6997 38.8728 69.0198 39.6686C71.3182 41.073 73.9725 41.3491 76.5846 41.2227C78.7407 41.1175 80.8691 40.6915 82.8996 39.9588C84.5052 39.3737 86.2092 38.2268 86.6445 36.5181C86.9909 35.1138 85.0248 34.6456 83.9949 34.6456C82.0855 34.721 80.1828 34.9164 78.2979 35.2308C76.9685 35.4274 75.6343 35.6334 74.2955 35.6989C73.8558 35.7408 73.4121 35.6962 72.9894 35.5678C72.7273 35.4461 72.7414 35.2823 73.0363 34.9031C73.0363 34.9031 73.0784 34.9031 73.1907 34.8282C73.0035 34.9265 73.2516 34.8282 73.3358 34.7767C73.3358 34.7767 73.6682 34.6831 73.7197 34.6737C74.398 34.5234 75.0895 34.4403 75.7841 34.4256C77.0902 34.3695 78.4056 34.318 79.7023 34.1541C79.8504 34.1529 79.9979 34.1356 80.1423 34.1026C83.9298 33.3799 87.673 32.4422 91.3538 31.2939C93.9144 30.456 100.248 28.6303 100.047 25.1709C99.8315 22.0485 94.7196 20.7986 92.1543 20.5739ZM35.2636 41.747L35.3104 41.719L35.2636 41.747ZM49.1246 25.9714C49.2136 25.0024 49.6677 24.3564 50.1358 24.2346C51.1141 23.9772 52.1581 24.4921 53.0662 24.9134C53.9449 25.2436 54.7898 25.6574 55.5894 26.1493C55.7309 26.2253 55.856 26.3286 55.9576 26.4531C56.0591 26.5776 56.1351 26.721 56.1812 26.8749C56.2273 27.0288 56.2426 27.1903 56.2262 27.3502C56.2098 27.51 56.162 27.6651 56.0856 27.8064C55.5191 28.7146 54.6297 28.8222 54.068 29.0516C53.3517 29.3905 52.5712 29.5725 51.7789 29.5853C49.9953 29.5197 48.9701 27.6519 49.1246 25.9714ZM56.9188 22.8396C55.5974 22.2951 54.4487 21.402 53.5952 20.2556C53.1833 19.5003 53.0745 18.6166 53.2909 17.7839C53.5484 16.8992 54.1148 16.6277 54.5127 16.7681C55.2242 17.0209 55.8515 17.929 56.3852 18.6406C56.9484 19.3296 57.463 20.0569 57.9253 20.8174C58.232 21.3328 58.3603 21.935 58.2905 22.5307C58.0236 23.5231 57.1623 22.952 56.9188 22.8396ZM74.9228 30.1564C74.9242 30.1455 74.9242 30.1345 74.9228 30.1236V30.1564Z" fill="white"/>
</g>
<defs>
<clipPath id="clip0_792_812">
<rect width="100" height="92.9127" fill="white"/>
</clipPath>
</defs>
</svg>
