<svg width="100" height="89" viewBox="0 0 100 89" fill="none" xmlns="http://www.w3.org/2000/svg">
<g clip-path="url(#clip0_792_813)">
<path d="M14.0113 41.9268C14.0113 41.9268 13.9661 41.9515 14.0113 41.9268V41.9268Z" fill="#1D1D1B"/>
<path d="M86.3466 33.3786C86.682 33.6529 86.9819 33.968 87.2393 34.3165C87.77 34.9747 88.2019 35.7193 88.7902 36.3281C89.4435 36.94 90.1591 37.4818 90.9252 37.9448C92.4349 38.9485 94.2449 39.9605 96.1084 39.9687C100.666 39.9893 100.802 33.2099 98.6548 30.5072C98.3788 30.1622 98.0371 29.8755 97.6494 29.6636C97.2617 29.4518 96.8358 29.319 96.3964 29.2731C96.317 29.2539 96.2353 29.2456 96.1537 29.2484C96.0813 29.2398 96.0081 29.2398 95.9357 29.2484C94.6193 29.3513 93.3605 29.7585 92.0605 29.9807C91.4655 30.0939 90.857 30.1188 90.2546 30.0547C89.7772 30.0068 89.3134 29.8671 88.8889 29.6433L88.8025 29.5487C88.8016 29.5309 88.8016 29.5131 88.8025 29.4952C88.9253 29.2802 89.1027 29.1014 89.3167 28.9769C90.0347 28.5674 90.866 28.4014 91.6862 28.5039C93.1959 28.5944 95.1006 29.051 95.9891 27.4261C96.4646 26.3986 96.5669 25.2376 96.2786 24.1429C95.9902 23.0482 95.3293 22.0882 94.4095 21.4283C93.4882 20.7745 92.3881 20.4197 91.2584 20.4122C90.2477 20.4398 89.2844 20.8466 88.5598 21.5517C87.8109 22.3219 87.1011 23.1292 86.433 23.9705C85.8776 24.5835 85.2894 25.1471 84.5901 25.1512C83.8907 25.1553 83.0433 24.6616 82.3399 24.3284C81.8742 24.1288 81.3869 23.9838 80.8877 23.8965C79.3384 23.5936 77.7702 23.397 76.194 23.3082C72.3465 23.0141 68.482 23.0141 64.6345 23.3082C63.1668 23.3909 61.7107 23.6155 60.2863 23.9788C59.1267 24.3418 57.994 24.7858 56.8966 25.3075C55.4135 25.9481 53.8927 26.4976 52.3427 26.953C51.0126 27.3451 49.6702 27.688 48.3154 27.9814C47.8761 28.08 47.4309 28.1501 46.9826 28.1912C46.7687 28.1912 46.5712 28.2159 46.3367 28.2159H46.0405L45.7896 28.1912C45.6376 28.1691 45.4877 28.1348 45.3412 28.0884L45.1849 28.0349L45.0779 27.9855C45.0146 27.9406 44.9487 27.8994 44.8805 27.8621L44.79 27.784L44.6954 27.6729C44.658 27.613 44.6236 27.5512 44.5925 27.4878C44.5925 27.4672 44.5226 27.278 44.5103 27.2327C44.4979 27.1875 44.5103 27.1751 44.5103 27.1422V27.0188C44.5103 26.8789 44.5103 26.7391 44.5103 26.6074C44.5087 26.5828 44.5087 26.558 44.5103 26.5334L44.5349 26.3771C44.5637 26.2372 44.5966 26.0932 44.6378 25.9657C44.6789 25.8382 44.7283 25.6736 44.7817 25.5296C44.8255 25.3889 44.8791 25.2514 44.9422 25.1183C45.2358 24.5019 45.5855 23.9139 45.9871 23.3617C46.3681 22.8445 46.7964 22.3639 47.2664 21.926C47.3816 21.8191 47.5009 21.7121 47.6243 21.6093C47.6987 21.5424 47.7785 21.4819 47.8629 21.4283C47.9447 21.3748 48.0299 21.3267 48.118 21.2843L48.2661 21.2103H48.2908L48.3484 21.1897C49.6 20.7943 50.8749 20.477 52.1659 20.2394C53.6436 19.9691 55.0946 19.5686 56.5017 19.0423C57.6206 18.5816 58.8671 17.8946 59.2167 16.6399C59.6281 15.2166 58.6367 13.8303 57.5713 12.9746C56.0657 11.7405 54.2515 10.9671 52.4661 10.2472C50.5821 9.48209 48.6486 8.84034 46.7646 8.06697C45.9048 7.7173 45.0862 7.27713 44.247 6.86988C42.8812 6.20346 41.499 5.55349 40.1333 4.91587C37.3853 3.65707 34.6045 2.47233 31.8236 1.27936C29.5446 0.300295 26.6938 -0.703449 24.4189 0.867986C23.7155 1.3534 23.263 2.10211 23.5098 2.97421C23.7719 3.66801 24.1949 4.28972 24.7439 4.78834C25.2454 5.27103 25.6936 5.80613 26.0809 6.38446C26.1363 6.4608 26.1761 6.54734 26.198 6.63912C26.2199 6.7309 26.2234 6.82611 26.2084 6.91925C26.2084 6.81641 26.1796 6.98506 26.1714 7.06322V7.09614L26.1261 7.14962C26.1187 7.16119 26.1089 7.17101 26.0973 7.1784L25.9862 7.25246L25.9081 7.28536L25.7929 7.3265C25.5442 7.40377 25.2839 7.43717 25.0236 7.42523C24.3395 7.42953 23.6573 7.35219 22.9915 7.19486C21.3647 6.83722 19.7625 6.37554 18.1949 5.81266C17.0823 5.40957 15.9445 5.07977 14.7888 4.82538C13.0199 4.46749 11.1564 4.09313 9.34633 4.31939C7.5363 4.54564 6.00599 5.48356 5.60696 7.33473C5.24085 9.009 6.07182 10.5311 7.21132 11.7117C9.62606 14.2128 12.9705 15.5169 15.9776 17.1583C18.0345 18.2977 20.2271 19.2151 22.3703 20.2312C24.6452 21.2966 26.9571 22.4567 28.8658 24.1145C29.8158 25.033 30.6019 26.1071 31.1901 27.2903C31.8069 28.3291 32.127 29.5172 32.1157 30.7252C31.984 33.5061 29.2813 35.2915 27.0311 36.4022C26.2568 36.8099 25.4365 37.1234 24.5876 37.336C23.5674 37.6034 22.5307 37.8337 21.5188 38.134C20.4924 37.9025 19.5482 37.3963 18.7873 36.6695C18.1167 35.9949 17.6231 35.1639 16.9443 34.4975C15.6074 33.1935 13.8138 32.9754 12.0367 33.2922C10.2596 33.609 8.63878 34.5798 8.19038 36.3898C8.07329 36.758 8.05575 37.1506 8.13956 37.5278C8.22338 37.905 8.40555 38.2532 8.66756 38.5372C9.18981 38.9831 9.81693 39.2889 10.4899 39.4257C11.7981 39.7836 12.9828 40.1251 13.7809 41.3263C13.8653 41.4452 13.9384 41.572 13.9989 41.7047C14.0134 41.7701 14.0312 41.8346 14.0524 41.8981C14.0543 41.9227 14.0543 41.9475 14.0524 41.9721V41.9433C14.0547 41.9528 14.0547 41.9626 14.0524 41.9721C14.0402 41.9848 14.0264 41.9959 14.0113 42.005C14.11 41.9269 13.8632 42.0955 13.8755 42.0914C13.024 42.474 12.1601 42.1325 11.4073 41.68C10.5475 41.1617 9.76179 40.4994 8.86089 40.0716C8.02478 39.6832 7.10124 39.5214 6.18289 39.6026C4.63236 39.6985 3.18222 40.4021 2.14735 41.5607C1.23822 42.6385 0.822716 44.0948 1.48091 45.4071C2.1391 46.7193 3.80516 47.5873 5.21616 47.6737C6.25391 47.6755 7.28958 47.5805 8.30967 47.3899C9.4903 47.2294 10.5928 47.0566 11.8598 46.9785C12.2712 46.9456 12.6825 46.9456 13.0939 46.9538C12.6211 47.4524 12.0397 47.8352 11.3949 48.0727C10.0539 48.5211 8.04228 48.4841 8.10399 50.4175C8.15335 52.5155 9.91401 53.8237 11.8474 54.0623C13.4929 54.268 15.7801 53.9348 16.9114 52.569C17.8864 51.3884 17.6807 49.7305 18.3636 48.4059C18.8752 47.4903 19.5403 46.6693 20.3299 45.9789C21.0987 45.2429 21.9457 44.5932 22.8557 44.0413C24.6311 43.0625 26.5752 42.4274 28.5861 42.1696C30.64 41.8358 32.7407 41.9296 34.7567 42.4452C35.7178 42.6983 36.6338 43.0994 37.4717 43.634C38.1546 44.0824 38.9074 44.428 39.5532 44.9299C40.9158 46.0514 41.8094 47.642 42.0585 49.3891C42.2085 50.3204 42.2623 51.2647 42.2189 52.207C42.2189 52.7212 42.1696 53.2313 42.1243 53.7455L42.0873 54.1034C42.0873 54.1034 42.0379 54.4078 42.0297 54.4654C41.9081 55.1835 41.711 55.8868 41.4414 56.5634C41.3163 56.8636 41.1634 57.1514 40.9848 57.4232C40.8647 57.6173 40.6997 57.7796 40.5035 57.8963C40.4544 57.9239 40.3994 57.9394 40.3431 57.9415H40.2855C40.2153 57.9286 40.1465 57.9093 40.0798 57.8839C39.9235 57.8304 39.8741 57.7523 39.8206 57.5589C39.6725 56.983 39.8782 56.0944 40.0428 55.428C40.4212 53.9389 40.8902 52.5279 40.812 50.9606C40.7369 49.8743 40.4431 48.8145 39.9483 47.8446C39.4534 46.8748 38.7678 46.0149 37.9324 45.3166C36.287 43.9837 34.1519 43.5189 32.0786 43.3913C31.1161 43.3557 30.1524 43.4067 29.199 43.5435C28.2511 43.6429 27.3111 43.8065 26.3853 44.0331C24.6092 44.4262 22.9729 45.2934 21.6504 46.5424C20.1571 48.0439 19.322 50.0103 18.742 52.0178C18.5571 52.8856 18.2096 53.7105 17.7177 54.449C17.0322 55.2889 16.0948 55.886 15.0438 56.152C13.9737 56.3785 12.8622 56.3117 11.8269 55.9587C10.802 55.6014 9.83262 55.1015 8.94729 54.4736C8.13471 53.9052 7.19833 53.5385 6.21578 53.4041C5.1114 53.3392 4.01501 53.6273 3.08526 54.2268C1.33283 55.3211 0.588252 57.2627 0.238587 59.2126C-0.141929 61.2746 -0.0760118 63.3941 0.431919 65.4284C0.955079 67.5959 1.84255 69.6588 3.05646 71.5291C4.26589 73.3638 5.81265 74.9928 7.87362 75.8443C9.80295 76.6671 11.9174 76.6671 13.9578 76.3791C17.368 75.9143 21.7327 74.9681 23.3576 71.5332C24.7933 68.489 23.9788 64.9924 23.769 61.7919C23.6153 59.945 23.647 58.0873 23.8636 56.2467C24.0652 54.704 24.4518 52.8734 25.6242 51.7668C26.3244 51.051 27.254 50.604 28.2503 50.504C29.2466 50.404 30.2464 50.6573 31.0749 51.2197C33.0124 52.5073 34.1766 54.9467 34.625 57.164C35.1187 59.5952 33.7323 62.047 34.625 64.4617C34.9635 65.4053 35.6023 66.2117 36.4433 66.7572C36.853 67.0115 37.2923 67.2145 37.7514 67.3619C37.9489 67.4277 38.1875 67.4524 38.3726 67.5347C38.5577 67.6169 38.821 67.8062 39.0432 67.9255C40.9067 68.9457 43.0293 69.3323 44.9011 70.3114C46.0852 70.9179 47.1281 71.7674 47.9617 72.8043C48.1205 73.0254 48.2582 73.2609 48.373 73.5078C48.373 73.5078 48.4142 73.6476 48.4388 73.7546C48.4388 73.7546 48.4388 73.7957 48.4388 73.8081C48.4388 73.8204 48.4388 73.8574 48.4388 73.8821V73.9068C48.4388 73.9068 48.4388 73.9397 48.4388 73.9561L48.3689 74.0261C48.3152 74.0655 48.2588 74.1013 48.2002 74.133C47.8791 74.2734 47.5374 74.3609 47.1883 74.3922C46.4643 74.458 45.6621 74.0055 45.0121 73.6147C44.1494 73.0791 43.3146 72.4997 42.511 71.8787C40.8505 70.5698 39.0143 69.5008 37.0562 68.703C34.9389 67.9194 32.6493 67.7218 30.4291 68.1311C26.4017 68.8798 23.3699 72.0474 21.8849 75.7333C20.4574 79.2628 20.6796 83.6686 23.6579 86.3631C25.064 87.6213 26.8929 88.3029 28.7795 88.2718C30.4496 88.2718 32.2884 87.7741 33.5801 86.6675C35.5424 84.985 34.843 82.3481 34.082 80.2542C33.6381 79.168 33.2671 78.0535 32.9713 76.918C32.8448 76.4577 32.803 75.9782 32.8479 75.5029C32.8801 75.1058 33.0102 74.7228 33.2264 74.3881C33.2556 74.3426 33.2871 74.2986 33.321 74.2565C33.3395 74.2301 33.3601 74.2054 33.3827 74.1824C33.4751 74.0763 33.574 73.976 33.6789 73.8821C33.8853 73.7 34.1132 73.5439 34.3576 73.4173C34.8456 73.1216 35.408 72.9717 35.9784 72.9853C36.5509 73.023 37.1103 73.174 37.6239 73.4296C38.2502 73.7432 38.8405 74.1239 39.3846 74.565C41.931 76.6218 43.8438 79.2916 46.1722 81.5583C46.6453 82.0267 47.1557 82.4559 47.6984 82.8418C48.4247 83.3081 49.1966 83.6996 50.002 84.01C52.3715 85.0022 54.861 85.6785 57.4067 86.0216C59.8187 86.369 62.2599 86.4682 64.6921 86.3178C66.1854 86.2232 67.946 86.1574 69.2172 85.2524C70.694 84.1952 70.7763 82.3933 70.476 80.7273C70.1551 78.942 69.5133 77.0908 68.1065 75.8649C66.2265 74.2194 63.4991 74.0055 61.1502 73.4461C58.4969 72.8125 55.7489 72.1009 53.3876 70.8133C53.1449 70.6816 52.9022 70.5418 52.6718 70.4019C52.5484 70.3237 52.4291 70.2415 52.3098 70.1592L52.1947 70.0728L52.0836 69.9864C51.9011 69.8368 51.728 69.676 51.5652 69.5051C51.5323 69.4681 51.376 69.2748 51.3719 69.2789C51.3171 69.2048 51.2677 69.1308 51.2238 69.0567C51.1799 68.9827 51.1429 68.9127 51.1127 68.8469C51.1127 68.8469 51.0346 68.6454 51.0223 68.596C51.0099 68.5466 50.9893 68.4109 50.9852 68.3903C50.9811 68.3697 50.9852 68.2504 50.9852 68.1805C50.9832 68.1435 50.9832 68.1064 50.9852 68.0694C50.9852 68.0406 50.9852 67.9913 50.9852 67.9748C51.0181 67.872 51.0428 67.7691 51.0757 67.6663C51.0766 67.6567 51.0766 67.6471 51.0757 67.6375C51.1004 67.584 51.1251 67.5305 51.1539 67.4771C53.2519 67.4976 55.0496 69.1596 56.6662 70.3196C57.5644 71.0357 58.5787 71.5923 59.6651 71.9651C60.8621 72.2521 62.101 72.3204 63.3222 72.1667C65.4408 71.9569 67.3701 71.1177 68.67 69.3858C69.2596 68.5648 69.6984 67.6455 69.9659 66.6708C70.2279 65.8537 70.3828 65.0061 70.4266 64.1491C70.4554 62.9397 70.0934 61.6809 69.8054 60.5208C69.394 58.8753 68.9456 57.2545 68.5343 55.6173C68.3204 54.7534 68.1229 53.8895 67.9296 53.0174C67.8432 52.606 67.7609 52.1741 67.6868 51.7504C67.6498 51.5447 67.6128 51.339 67.584 51.1374C67.5552 50.9359 67.5264 50.7261 67.5141 50.6644C67.4147 49.9269 67.3707 49.1829 67.3824 48.4389C67.3824 48.2908 67.3824 48.1386 67.4071 47.9905C67.4071 47.9164 67.4071 47.8382 67.4071 47.7642C67.4091 47.7286 67.4091 47.6929 67.4071 47.6572C67.4567 47.389 67.5269 47.1249 67.6169 46.8674V46.8469L67.6868 46.707C67.7156 46.6535 67.7486 46.6041 67.7774 46.5548C67.7882 46.5347 67.8006 46.5154 67.8144 46.4972C67.8761 46.4272 67.9419 46.3614 68.0077 46.2915L68.1682 46.1928L68.2463 46.1557L68.3204 46.127L68.4973 46.0817H68.5754C68.6973 46.0735 68.8196 46.0735 68.9415 46.0817H69.1637H69.2789C69.5741 46.1368 69.8654 46.211 70.151 46.3038L70.2826 46.3697C70.3125 46.3926 70.3442 46.4132 70.3772 46.4314C70.4389 46.489 70.5048 46.5424 70.5623 46.6L70.6981 46.7563L70.8256 46.9415C70.8832 47.032 70.9367 47.1266 70.986 47.2212C71.0354 47.3158 71.0848 47.4269 71.1341 47.5338L71.2082 47.7354C71.2987 47.9822 71.3727 48.2373 71.4427 48.4964C71.5916 49.0829 71.7056 49.6777 71.7841 50.2777C71.7841 50.327 71.817 50.5615 71.8252 50.6273C71.8458 50.8166 71.8664 51.0058 71.8828 51.195C71.9185 51.5653 71.9473 51.9355 71.9692 52.3057C72.0227 53.1285 72.0515 53.9224 72.0679 54.7287C72.1502 58.5133 72.0145 62.302 72.0186 66.0866C72.0227 69.8712 72.105 73.66 72.7632 77.3788C73.2486 80.1185 74.1125 83.2737 76.3421 85.1331C77.3787 85.9928 78.6869 86.4741 79.9375 86.9349C81.4885 87.509 83.081 87.9642 84.7011 88.2965C87.6959 88.9053 91.4394 89.3866 94.2202 87.77C94.8468 87.4077 95.3873 86.9137 95.8042 86.322C96.2211 85.7303 96.5046 85.0552 96.635 84.3432C96.9981 82.2386 96.5687 80.074 95.4297 78.2673C94.1955 76.4367 92.2004 75.7991 90.123 75.4659C89.0041 75.2808 87.8605 75.1615 86.7621 74.8653C86.1733 74.7004 85.6338 74.3939 85.1907 73.9726C84.0594 72.9277 83.3395 71.4015 82.8171 69.9083C82.1643 67.9501 81.696 65.9352 81.4184 63.8899C80.8812 59.9626 80.6227 56.0022 80.645 52.0383C80.6203 48.155 80.9618 44.2223 80.4517 40.3801C80.1966 38.4384 79.74 36.4639 78.6951 34.7855C77.6924 33.1583 76.1159 31.9663 74.277 31.4451C72.0638 30.8158 69.5421 30.9063 67.2837 31.0873C64.9471 31.2724 62.2691 31.548 60.3809 33.0701C58.3776 34.6826 57.8222 37.1056 58.1431 39.5656C58.3268 40.8025 58.5935 42.0256 58.9411 43.2268C59.2702 44.4403 59.5417 45.6744 59.949 46.8633C61.4422 51.2033 65.4655 57.9292 60.8787 61.7261C60.5511 62.0022 60.1853 62.2295 59.7926 62.4008C59.5018 62.5173 59.1926 62.5814 58.8794 62.59H58.7601C58.8959 62.59 58.7601 62.59 58.7601 62.59C58.6721 62.5716 58.5855 62.5468 58.501 62.5159C58.4313 62.4775 58.364 62.4349 58.2994 62.3884C58.0972 62.1871 57.9548 61.9336 57.888 61.6562C58.2994 60.2452 59.2373 59.0152 59.768 57.5877C60.5455 55.4897 60.274 53.1614 59.698 51.0469C58.5215 46.7276 56.2096 42.6344 55.8723 38.1052C55.7242 36.1471 56.0286 34.0327 57.4602 32.5723C57.9315 32.1083 58.4499 31.6947 59.0069 31.3382C59.4433 31.016 59.8979 30.7193 60.3686 30.4496C61.2106 30.0483 62.1099 29.7804 63.0342 29.6557C65.0459 29.3184 67.1274 29.3348 69.1637 29.2443C72.3189 29.0757 75.5358 28.8947 78.6869 29.1991L79.1394 29.2525H79.2011L79.4644 29.2937C79.6976 29.3359 79.9283 29.3908 80.1555 29.4582C80.1964 29.4682 80.2364 29.482 80.2748 29.4994L80.3571 29.557L80.4311 29.6804C80.5661 29.9263 80.679 30.1837 80.7684 30.4496C81.5007 32.634 81.0317 35.0076 81.2539 37.2619C81.3282 38.4197 81.6659 39.5453 82.2411 40.5529C82.9507 41.6869 84.0151 42.5546 85.2688 43.0211C85.9276 43.2716 86.6434 43.3323 87.335 43.1963C88.0265 43.0603 88.666 42.7331 89.1809 42.2518C90.123 41.4291 90.6372 40.2773 90.049 39.0884C89.58 38.134 88.605 37.3689 87.8399 36.6572C87.1545 36.0804 86.5412 35.4229 86.0134 34.6991C85.7844 34.4075 85.6495 34.0531 85.6267 33.683C85.634 33.5894 85.6699 33.5004 85.7296 33.428C85.7584 33.3909 85.8694 33.284 85.8612 33.2922C85.853 33.3004 85.9229 33.2552 85.9435 33.2428H85.9641H86.0257C86.0504 33.2428 85.9641 33.2058 86.0916 33.2716L86.3466 33.3786ZM44.2017 14.2211H44.1812L44.0948 14.2787C44.0227 14.3222 43.947 14.3594 43.8685 14.3897C43.3802 14.5571 42.8776 14.6796 42.367 14.7558C41.7952 14.8669 41.2193 14.9698 40.6392 15.0479C39.5493 15.2065 38.444 15.23 37.3483 15.1179C36.8084 15.0449 36.2794 14.9068 35.7728 14.7065C35.5856 14.626 35.4029 14.5354 35.2256 14.435C35.1269 14.3733 35.0241 14.3116 34.9295 14.2416H34.9047C34.8718 14.2087 34.8307 14.1799 34.7937 14.147C34.717 14.0799 34.6442 14.0085 34.5757 13.9331C34.542 13.8994 34.5104 13.8637 34.481 13.8261C34.3954 13.7035 34.3197 13.5742 34.2548 13.4395C34.2095 13.3239 34.1764 13.204 34.1561 13.0816C34.1437 12.9695 34.1437 12.8564 34.1561 12.7443C34.1739 12.6422 34.2 12.5417 34.2342 12.444C34.2754 12.3617 34.3206 12.2794 34.37 12.2012C34.3288 12.2547 34.37 12.2012 34.407 12.1395C34.422 12.1227 34.4357 12.1049 34.4481 12.0861L34.4193 12.1313C34.4586 12.0832 34.5013 12.0378 34.5469 11.9956L34.6744 11.8804L34.7361 11.8392C34.8261 11.7816 34.9195 11.7294 35.0158 11.6829C35.201 11.6135 35.3925 11.5625 35.5876 11.5307C35.6941 11.5176 35.8012 11.5107 35.9085 11.5101C36.4518 11.5096 36.9945 11.5439 37.5334 11.613C39.257 11.8598 40.9272 12.3864 42.6303 12.7566C42.8962 12.8158 43.1564 12.8984 43.4078 13.0034C43.673 13.1153 43.9265 13.2531 44.1647 13.4148L44.2182 13.46C44.2758 13.5135 44.3293 13.567 44.3827 13.6246V13.6575C44.3975 13.6794 44.4099 13.7029 44.4197 13.7274C44.4197 13.748 44.4197 13.7727 44.4197 13.7932V13.8385L44.3951 13.929C44.3622 13.9866 44.3334 14.0483 44.2963 14.1059L44.2675 14.1429C44.247 14.1701 44.2251 14.1962 44.2017 14.2211ZM45.1561 9.65486L45.2384 9.71245L45.3124 9.77416L45.4811 9.93047C45.5469 9.99218 45.6086 10.058 45.6703 10.1238L45.732 10.1979C45.8056 10.3041 45.8717 10.4155 45.9295 10.5311C45.9295 10.5681 45.9542 10.6092 45.9624 10.6463C45.9665 10.6694 45.9665 10.6931 45.9624 10.7162C45.9624 10.7162 45.9624 10.7162 45.9624 10.7409C45.961 10.7532 45.961 10.7656 45.9624 10.7779C45.9497 10.7926 45.936 10.8064 45.9213 10.819C45.9583 10.7902 45.9213 10.819 45.8719 10.8643L45.8308 10.9013C45.8427 10.8914 45.8537 10.8804 45.8637 10.8684C45.8098 10.9039 45.7534 10.9355 45.695 10.963L45.5675 10.9959C45.421 11.0083 45.2738 11.0083 45.1273 10.9959C44.7941 10.9425 44.465 10.8602 44.1359 10.782C43.6916 10.6751 43.2515 10.5558 42.8154 10.4241C42.0996 10.2061 41.3962 9.94282 40.701 9.65486C40.5446 9.58493 40.3842 9.51499 40.2279 9.43272C40.0716 9.35044 39.9646 9.2764 39.8165 9.19413C39.7888 9.17889 39.7626 9.16098 39.7383 9.14065H39.7096H39.7343L39.652 9.0666L39.545 8.95964V8.93085L39.5697 8.9761C39.5612 8.95688 39.5501 8.93889 39.5368 8.92262C39.5246 8.90559 39.5136 8.88772 39.5039 8.86914C39.429 8.75362 39.3603 8.63415 39.2982 8.51125C39.237 8.3746 39.2142 8.22383 39.2324 8.0752C39.2409 8.02764 39.2532 7.98086 39.2694 7.93534C39.2966 7.87207 39.3297 7.81147 39.3681 7.75433C39.3975 7.71945 39.4291 7.68646 39.4627 7.65559L39.5491 7.58155C39.6196 7.53912 39.6924 7.50067 39.7671 7.46637C39.8785 7.42669 39.9927 7.39507 40.1086 7.37175C40.2605 7.35941 40.4132 7.35941 40.5652 7.37175C40.6851 7.39366 40.8033 7.42391 40.919 7.46225C41.1549 7.54178 41.3852 7.62817 41.6101 7.72142C42.37 8.06706 43.1102 8.45434 43.8274 8.88148C44.2058 9.09951 44.5843 9.31753 44.9669 9.53144C45.0328 9.56805 45.096 9.60929 45.1561 9.65486Z" fill="white"/>
<path d="M39.7507 9.16533L39.8289 9.21881L39.7466 9.16533H39.7507Z" fill="#1D1D1B"/>
<path d="M45.876 10.8972L45.9171 10.8643L45.8595 10.9137L45.876 10.8972Z" fill="#1D1D1B"/>
<path d="M39.5367 8.93908L39.4956 8.87737L39.5367 8.93908Z" fill="#1D1D1B"/>
<path d="M34.4028 12.1149C34.3975 12.1267 34.3906 12.1378 34.3823 12.1478C34.3801 12.1586 34.3801 12.1698 34.3823 12.1807L34.4316 12.1066L34.4028 12.1149Z" fill="#1D1D1B"/>
</g>
<defs>
<clipPath id="clip0_792_813">
<rect width="100" height="88.8436" fill="white"/>
</clipPath>
</defs>
</svg>
