<svg width="100" height="89" viewBox="0 0 100 89" fill="none" xmlns="http://www.w3.org/2000/svg">
<g clip-path="url(#clip0_792_814)">
<path d="M97.0264 61.9863L96.9269 61.9182L96.817 61.8292C95.5082 60.8659 93.6758 60.6931 92.1052 60.6146C90.0331 60.5542 87.9594 60.6488 85.9014 60.8973C83.9381 61.0963 81.9853 61.358 80.022 61.5465C79.2943 61.6198 78.5614 61.6512 77.8285 61.6879C77.0955 61.7245 76.2578 61.8606 75.4568 61.9549C73.471 62.2225 71.4712 62.3729 69.4677 62.4051C68.986 62.4051 68.5043 62.4051 68.0227 62.358C67.7976 62.358 67.5777 62.3266 67.3526 62.3004H67.1641L66.8343 62.248C66.41 62.1767 65.9917 62.0734 65.583 61.9392L65.3213 61.8449H65.2479C65.0763 61.7692 64.9102 61.6817 64.7506 61.5832L64.5412 61.4418V61.4156C64.413 61.3014 64.2923 61.179 64.18 61.0491V61.0073C64.1381 60.9392 64.0962 60.8711 64.0595 60.8031C63.9716 60.6351 63.898 60.46 63.8397 60.2796C63.7699 60.0806 63.7122 59.8817 63.6669 59.6827C63.6407 59.5885 63.625 59.4943 63.604 59.4C63.6067 59.3739 63.6067 59.3476 63.604 59.3215V59.1906C63.5927 59.0163 63.5927 58.8414 63.604 58.6671C63.6013 58.6165 63.6013 58.5658 63.604 58.5152C63.604 58.4838 63.6041 58.4158 63.6355 58.3687C63.6669 58.3215 63.6774 58.2273 63.6931 58.1593C63.7088 58.0912 63.693 58.0912 63.7349 58.0493L63.803 57.9132C63.8449 57.8451 63.892 57.7771 63.9339 57.7038C63.981 57.6567 64.0229 57.6043 64.07 57.5519C64.1609 57.4593 64.2571 57.3719 64.358 57.2902L64.6355 57.1017C64.7768 57.0127 64.9234 56.9342 65.0752 56.8557L65.2951 56.7562H65.3475C65.5307 56.6881 65.7139 56.6201 65.9024 56.5625C66.2584 56.4578 66.6144 56.3688 66.9494 56.2955L67.473 56.196L67.7452 56.1541H67.8028H67.8918C68.6719 56.0599 69.4624 56.0075 70.2477 55.9814C71.7345 55.9342 73.2214 55.9814 74.7082 55.9028C78.8598 55.7248 83.0847 55.5154 87.1316 54.4055C90.7964 53.4003 94.3564 51.4633 96.2777 48.0394C97.3116 46.0247 97.9075 43.8141 98.0263 41.5528C98.2019 38.705 98.1213 35.8473 97.7855 33.014C97.4086 28.9671 97.2044 24.7212 95.3616 21.0094C94.7543 19.7791 93.6967 18.2922 92.1471 18.3917C90.0948 18.5226 88.9692 21.0094 88.3096 22.648C87.1264 25.5641 87.2625 28.8414 87.629 31.9041C87.7284 32.7365 87.8436 33.5689 87.9588 34.3961C87.9588 34.5741 88.0059 34.7521 88.0321 34.9196C88.0321 35.0034 88.0321 35.0924 88.0687 35.1814C88.0713 35.2145 88.0713 35.2478 88.0687 35.2809V35.307C88.1158 35.6683 88.163 36.0295 88.2048 36.3908C88.3974 37.7464 88.4519 39.1181 88.3672 40.4848C88.3672 40.5581 88.3305 40.7832 88.3305 40.8094C88.3305 40.935 88.2938 41.0554 88.2677 41.1811C88.2133 41.4639 88.1434 41.7436 88.0583 42.0187C88.0112 42.1549 87.9588 42.2857 87.9117 42.4166C87.8803 42.4847 87.8488 42.558 87.8122 42.626C87.6817 42.8701 87.5366 43.1061 87.3777 43.3328L87.2468 43.4846C87.1473 43.5998 87.0426 43.7045 86.9327 43.8092L86.7495 43.9715L86.6552 44.05L86.5505 44.1233C86.4825 44.1757 86.4092 44.2228 86.3359 44.2699C86.0542 44.4491 85.7603 44.6083 85.4563 44.7463L85.3882 44.7725L85.137 44.8668C84.9537 44.9348 84.76 44.9976 84.5716 45.0552C82.624 45.6311 80.734 45.5788 78.6504 45.6049C76.5667 45.6311 74.4622 45.7411 72.3366 45.6835C71.2741 45.6659 70.214 45.5749 69.164 45.4112C68.6658 45.3281 68.1729 45.2163 67.6876 45.0762C67.2869 44.9676 66.8976 44.8203 66.5254 44.6364C66.3242 44.5314 66.1284 44.416 65.939 44.2909C65.7933 44.2105 65.6609 44.108 65.5464 43.9872C65.4783 43.9296 65.4208 43.8668 65.3579 43.804L65.3265 43.7726C65.2218 43.6155 65.1171 43.4532 65.0229 43.2857C64.5693 42.4495 64.2395 41.5519 64.0439 40.6209C64.0439 40.511 63.9967 40.3958 63.9758 40.2859C63.9758 40.2597 63.9758 40.1393 63.9758 40.1026C63.9758 39.9089 63.9758 39.7152 63.9758 39.5215V39.4901L64.0229 39.3225L64.1328 38.9875C64.2166 38.7257 64.3056 38.464 64.4103 38.2179L64.5517 37.9142C64.6307 37.7578 64.7181 37.6058 64.8134 37.4588C64.8553 37.3907 64.9024 37.3227 64.9496 37.2546L64.9967 37.1813C64.9967 37.1813 64.9967 37.2179 64.9967 37.1813C65.1223 37.0452 65.248 36.9143 65.3841 36.7886L65.4155 36.752H65.4469C65.5301 36.6901 65.6176 36.6342 65.7087 36.5845L65.871 36.4955L66.0961 36.4169L66.384 36.3436H66.4521H66.5254C66.7763 36.3227 67.0284 36.3227 67.2793 36.3436C67.6882 36.4091 68.0897 36.5143 68.4782 36.6578C71.8968 37.8828 75.0956 39.5686 78.6766 40.6628C80.0901 41.0921 81.7497 41.5737 83.2365 41.2125C83.7011 41.1404 84.1237 40.9022 84.426 40.5421C84.7283 40.182 84.8898 39.7245 84.8804 39.2545C84.7823 38.5112 84.5271 37.7974 84.1318 37.1604C83.6566 36.3271 83.1322 35.5229 82.5612 34.7521C80.9121 32.4276 79.0902 30.2235 77.2473 28.0509C75.0223 25.4332 72.724 22.8731 70.3943 20.3497C68.0646 17.8263 65.7192 15.3552 63.3266 12.9155C61.3843 10.9261 59.4158 8.95765 57.3845 7.05199C55.8183 5.54282 54.1107 4.18762 52.2853 3.00507C51.1806 2.31401 49.7462 1.34547 48.3745 1.43447C47.1337 1.52871 46.6102 2.55484 46.4741 3.66473C46.3589 4.61756 46.427 5.58609 46.3275 6.54416V6.70645C46.3013 6.84257 46.2804 6.97346 46.2542 7.10434C46.1986 7.3582 46.1269 7.60825 46.0395 7.85299V7.89487C46.0395 7.93151 46.0029 7.9734 45.9819 8.01005C45.9139 8.14093 45.8458 8.27182 45.7673 8.39223C45.6888 8.51264 45.6992 8.4917 45.6678 8.53882C45.5684 8.63829 45.4794 8.74823 45.3747 8.8477L45.2228 8.97858C45.0867 9.06235 44.9611 9.15135 44.8197 9.22464L44.6103 9.32936C44.4476 9.38951 44.2815 9.44019 44.1129 9.48117H44.0868H43.9506C43.8059 9.48901 43.6609 9.48901 43.5161 9.48117C43.3749 9.48898 43.2333 9.48898 43.0921 9.48117H42.8983H42.8041C41.2426 9.16026 39.7207 8.67051 38.2651 8.02053L37.8148 7.82682L37.1604 7.54411L35.8778 6.97346L33.2287 5.76933C31.5225 4.97766 29.7749 4.2786 27.9934 3.67519C26.5721 3.13688 25.0567 2.89114 23.5381 2.95272C22.3968 3.06266 21.1456 3.47625 20.5383 4.52331C19.4912 6.29809 20.8995 8.49694 21.9308 9.92095C23.7634 12.3309 25.8196 14.5624 28.0719 16.5855C30.5796 18.9466 33.1868 21.2031 35.8149 23.4281C37.9091 25.229 40.0922 26.9933 42.1706 28.8414C42.7832 29.3649 43.3643 29.9461 43.9402 30.522C44.2177 30.7994 44.5056 31.0455 44.7726 31.3544C44.8878 31.4748 45.003 31.6004 45.1129 31.7313L45.2699 31.9146C45.3058 31.9637 45.3443 32.0108 45.3851 32.0559L45.4584 32.1606C45.5055 32.2287 45.5579 32.2915 45.605 32.3648C45.6521 32.4381 45.7673 32.6056 45.8406 32.7313C45.9079 32.8377 45.969 32.9478 46.0238 33.0611C46.0605 33.1239 46.1233 33.281 46.139 33.3176C46.2003 33.4893 46.2528 33.6641 46.2961 33.8411C46.299 33.8707 46.299 33.9006 46.2961 33.9302C46.2961 34.0244 46.2961 34.1134 46.2961 34.2076V34.2547C46.2689 34.3347 46.2496 34.4171 46.2385 34.5008C46.2313 34.5257 46.2225 34.5502 46.2123 34.5741C46.1809 34.6369 46.1495 34.705 46.1128 34.7678C46.0892 34.8029 46.063 34.8362 46.0343 34.8673L46.0867 34.8202C46.0186 34.883 45.961 34.972 45.893 35.04C45.8249 35.1081 45.7621 35.1657 45.694 35.2285L45.6155 35.2966C45.4471 35.4192 45.2723 35.5328 45.0919 35.6369L44.7673 35.8044L44.6155 35.8725C43.5349 36.2724 42.4154 36.5584 41.2754 36.7258L40.9351 36.7729L40.4901 36.8305C40.1341 36.8672 39.7781 36.9038 39.443 36.93C38.7206 36.9876 38.0033 37.019 37.2808 37.0399C35.7102 37.0766 34.192 37.0399 32.6528 36.9509C31.8989 36.9038 31.145 36.8462 30.3912 36.7729L29.2446 36.6525L28.7211 36.5897L28.4646 36.5531H28.3284C27.0301 36.3751 25.7108 36.1552 24.449 35.862C23.9255 35.7363 23.3758 35.6002 22.847 35.4379L22.1717 35.218L21.8575 35.1029L21.7633 35.061C21.4522 34.8547 21.1287 34.6676 20.7948 34.5008L20.5749 34.3438L20.4702 34.2652L20.0461 33.904C19.7584 33.6364 19.4874 33.3514 19.2347 33.0506L19.0619 32.836L19.0043 32.7574C18.8839 32.5952 18.7687 32.4329 18.6588 32.2653C18.4441 31.9355 18.2452 31.59 18.0619 31.2444C17.9729 31.0717 17.8839 30.8989 17.8054 30.7209C17.753 30.6214 17.7059 30.5167 17.6588 30.412L17.6012 30.2759V30.2497C17.2801 29.4583 17.0108 28.6469 16.795 27.8205C16.3434 26.0578 16.0491 24.2586 15.9155 22.4438C15.7532 20.533 15.6956 18.6116 15.6903 16.685C15.6903 13.392 15.8997 10.0885 15.7793 6.79546C15.7113 5.04163 15.5333 3.08361 14.4757 1.61771C14.0083 0.946799 13.3418 0.439756 12.5706 0.168253C11.7993 -0.10325 10.9621 -0.125472 10.1775 0.104713C8.54508 0.623286 7.11908 1.64605 6.10445 3.02602C5.09293 4.31043 4.42455 5.83093 4.16214 7.44464C3.47631 11.434 4.12027 15.6065 4.86368 19.5382C5.57569 23.292 6.56517 26.9776 7.48135 30.679C7.83504 32.4706 8.36101 34.2239 9.05195 35.9143C9.83749 37.6202 11.0469 39.0963 12.5648 40.2021C15.4966 42.3276 19.3708 42.6522 22.868 42.647C24.8626 42.647 26.8573 42.5213 28.852 42.4219C30.8466 42.3224 32.8413 42.3014 34.8464 42.3276C38.7101 42.38 42.6994 42.0344 46.3641 43.4218C46.5183 43.4785 46.6687 43.5449 46.8144 43.6208C47.0186 43.715 47.2175 43.8249 47.4164 43.9401C47.6154 44.0553 47.7567 44.1548 47.94 44.2752L48.029 44.3485C48.1127 44.427 48.2017 44.5003 48.2803 44.5788L48.5159 44.8196L48.6467 44.9767L48.7462 45.118C48.7462 45.1599 48.7933 45.2018 48.8247 45.2437V45.2803V45.3118C48.8614 45.4374 48.9033 45.5578 48.9294 45.6835C48.9654 45.8161 48.9934 45.9507 49.0132 46.0866C49.0132 46.1599 49.0394 46.2332 49.0498 46.3065V46.3484V46.385C49.0865 46.7672 49.1232 47.1494 49.1441 47.5315C49.1912 48.3901 49.186 49.2487 49.1441 50.1126C49.1022 50.9764 49.0655 51.9659 48.987 52.8873C48.9504 53.3218 48.9085 53.7511 48.8614 54.1804C48.8614 54.3846 48.8143 54.594 48.7881 54.7982V54.8976L48.741 55.2065C48.6647 55.7938 48.5457 56.3747 48.385 56.9446C48.385 56.9446 48.3535 57.0389 48.3378 57.0965C48.3221 57.1541 48.2907 57.1959 48.275 57.2221C48.1389 57.4577 47.9766 57.6828 47.8248 57.9132L47.6363 58.2064L47.5107 58.3844C47.2921 58.6594 46.9997 58.8664 46.6678 58.9812L46.5526 59.0388C46.4062 59.0492 46.2592 59.0492 46.1128 59.0388C45.7522 59.0401 45.3954 58.9651 45.0658 58.8189C44.8569 58.7218 44.6644 58.5929 44.4951 58.4367C44.475 58.4201 44.4574 58.4007 44.4428 58.3791C44.4428 58.3373 44.3852 58.2744 44.3695 58.2535C44.313 58.0931 44.2693 57.9286 44.2386 57.7614C44.2386 57.7247 44.2072 57.5834 44.202 57.5519C44.1967 57.5205 44.2019 57.3321 44.1758 57.2745C44.1522 56.8053 44.1522 56.3353 44.1758 55.8662C44.2228 55.0117 44.2228 54.1553 44.1758 53.3009C43.9716 51.1177 41.4586 49.9398 39.553 49.5524C37.2547 49.0812 34.8412 49.2225 32.5219 49.2749C29.7682 49.3377 27.0458 49.2749 24.2972 49.1545C22.3968 49.0655 20.4911 49.0498 18.5907 49.0445C16.1051 48.9621 13.6243 49.3165 11.2612 50.0916C9.26124 50.79 7.421 51.8811 5.84857 53.3007C4.27614 54.7203 3.00323 56.4398 2.10466 58.3582C1.21908 60.3186 0.712817 62.429 0.6126 64.5778C0.523599 66.3054 0.366532 68.0278 0.277531 69.7555C0.0733534 73.6715 -0.00518036 77.9593 1.6806 81.5978C2.41846 83.2233 3.68409 84.5517 5.27202 85.3672C6.58609 86.0531 8.12004 86.4614 9.52835 85.807C10.7168 85.2835 11.3974 84.048 11.8162 82.8648C12.275 81.4378 12.5357 79.9545 12.591 78.4566C12.7952 75.5667 12.591 72.6978 12.5334 69.7974C12.5334 67.9127 12.4078 66.0332 12.5334 64.1485C12.5334 63.9391 12.5701 63.7244 12.591 63.515C12.591 63.4103 12.591 63.3108 12.6329 63.2061C12.6748 63.1014 12.6329 63.2061 12.6329 63.2061L12.6643 63.0019C12.7266 62.5804 12.8123 62.1627 12.9209 61.7507C13.0181 61.3725 13.137 61.0002 13.2769 60.6356C13.2876 60.5995 13.3016 60.5644 13.3187 60.5309C13.3501 60.4523 13.3868 60.3738 13.4234 60.2953C13.5072 60.1225 13.5962 59.9497 13.6957 59.7717C13.7952 59.5937 13.8789 59.4628 13.9784 59.3163L14.0988 59.1487L14.2506 58.9603C14.4999 58.6726 14.7712 58.4048 15.0621 58.1593L15.1668 58.0702L15.4024 57.9027C15.5752 57.7771 15.7584 57.6671 15.9259 57.5572C16.2794 57.3565 16.6468 57.1816 17.0253 57.0337C18.8211 56.3478 20.7424 56.1855 22.6324 55.9499C26.5641 55.4578 30.5848 54.95 34.5532 55.2537L35.1815 55.3112L35.4851 55.3479H35.5532H35.6579C36.0401 55.4107 36.4275 55.4788 36.8097 55.573C37.142 55.6579 37.469 55.7628 37.7887 55.8871L38.0975 56.0285C38.2389 56.1018 38.375 56.1855 38.5059 56.2693L38.6001 56.3321L38.6787 56.4002C38.7781 56.4944 38.8672 56.5991 38.9666 56.6934C38.9985 56.7494 39.0334 56.8036 39.0713 56.8557C39.0975 56.908 39.1237 56.9708 39.1551 57.0232C39.1565 57.0406 39.1565 57.0581 39.1551 57.0755C39.1551 57.1802 39.2022 57.2797 39.2284 57.3897C39.2284 57.4158 39.2284 57.4577 39.2284 57.4996C39.2284 57.5415 39.2284 57.5729 39.2284 57.6095C39.2284 57.6462 39.2284 57.6881 39.197 57.7299C39.1656 57.7718 39.1498 57.8294 39.1394 57.8451V57.8713L38.9718 58.0336L38.909 58.0807C38.841 58.1226 38.7729 58.1645 38.6996 58.2011L38.5478 58.2744L38.3331 58.353C37.9911 58.4622 37.641 58.5444 37.2861 58.599H37.2389L37.0034 58.6252L36.5374 58.6618C36.3123 58.6618 36.082 58.6618 35.8568 58.6618C33.7627 58.6252 31.6686 58.1383 29.5744 57.8085C27.407 57.4629 25.2029 57.175 23.0355 57.6514C21.4178 58.0022 19.575 58.798 18.4389 60.044C16.6798 61.9601 16.1615 64.8029 15.8893 67.3001C15.5781 70.408 15.6979 73.544 16.2453 76.619C16.6693 79.1163 17.3395 81.8544 18.8629 83.9485C19.4518 84.8486 20.3256 85.5251 21.3445 85.8698C21.854 85.9994 22.3851 86.0198 22.903 85.9295C23.421 85.8393 23.9139 85.6405 24.3496 85.3463C25.0893 84.8755 25.7286 84.263 26.2309 83.5443C26.7331 82.8255 27.0883 82.0145 27.2761 81.158C27.6007 79.5351 27.2761 77.9436 27.051 76.3311V76.2787C27.051 76.195 27.051 76.1112 27.0248 76.0327C27.0248 75.8547 26.9934 75.6819 26.9829 75.5091C26.9725 75.3364 26.9829 75.195 26.9829 75.0379V74.8076C26.9804 74.7745 26.9804 74.7412 26.9829 74.7081C27.0061 74.556 27.0393 74.4056 27.0824 74.2579C27.0824 74.1846 27.1295 74.1165 27.1557 74.0432C27.1582 74.0347 27.1582 74.0256 27.1557 74.0171C27.1577 74.0014 27.1577 73.9856 27.1557 73.9699C27.2343 73.8338 27.3128 73.6977 27.4018 73.5668L27.4489 73.5145C27.517 73.4412 27.585 73.3626 27.6583 73.2946L27.8625 73.1061L27.9096 73.0642L27.962 73.0276C28.1534 72.892 28.3527 72.7679 28.5588 72.6559C29.0281 72.4029 29.5207 72.196 30.0299 72.0381C31.1392 71.6924 32.2814 71.4625 33.4381 71.3523C38.731 70.7921 44.0658 71.4675 49.3692 71.4099C52.5104 71.3785 55.6516 71.2266 58.7928 71.2319C61.2691 71.2319 63.735 71.4989 66.2061 71.457C70.431 71.3942 74.6454 70.9334 78.8755 70.9334C79.9645 70.9334 81.0587 70.9335 82.1476 71.0015C83.0993 71.0458 84.0481 71.1384 84.9904 71.279C85.8496 71.4111 86.6957 71.6178 87.5191 71.8968L87.7861 71.991L87.9641 72.0643L88.1787 72.1585L88.4562 72.2946C88.7703 72.4554 89.0668 72.6484 89.3409 72.8705C89.4896 73.0026 89.6295 73.1443 89.7598 73.2946L89.8697 73.4255L90.032 73.6663C90.1314 73.8338 90.2205 74.0014 90.3042 74.1898L90.3514 74.2736C90.349 74.2962 90.349 74.319 90.3514 74.3417L90.4613 74.661C90.5189 74.8495 90.566 75.038 90.6132 75.2264C90.6132 75.3259 90.6498 75.4201 90.6707 75.5196L90.7074 75.7395C90.7589 76.1546 90.7869 76.5724 90.7911 76.9907C90.8278 78.8022 90.566 80.5979 90.5608 82.4093C90.5608 84.0427 90.7963 85.828 92.0005 87.0373C93.0475 88.1106 94.8799 88.8802 96.3982 88.5294C97.7855 88.21 98.597 86.9588 99.0577 85.6866C99.5241 84.2654 99.7815 82.7841 99.8221 81.2889C99.9058 79.9382 99.8901 78.5875 99.8639 77.2368C99.8639 75.7447 99.9215 74.2684 99.9896 72.7868C100.1 69.2477 100.178 64.494 97.0264 61.9863ZM65.2899 43.8145C65.248 43.7673 65.2375 43.7412 65.2899 43.8145V43.8145ZM46.495 59.0754H46.427H46.4584C46.5107 59.044 46.5421 59.065 46.4793 59.0754H46.495ZM60.0545 26.0929C59.1802 26.4593 57.8295 25.9882 56.9814 25.7421C53.8716 24.8416 49.9084 23.47 48.2384 20.4597C46.5683 17.4493 49.254 14.8422 52.2224 16.3342C54.9762 17.7164 57.1018 19.9989 59.4629 21.9046C60.6147 22.9255 62.3214 25.161 60.0545 26.1033V26.0929ZM61.0126 22.203C60.0203 21.3764 59.091 20.4769 58.2326 19.5121C57.5572 18.7372 56.5573 17.732 56.3584 16.6797C55.8348 13.905 58.7405 13.0936 60.4943 14.8736C61.934 16.3447 62.9392 18.1299 64.0805 19.8262C64.7663 20.9518 65.4103 23.3129 63.3057 23.4228C62.4209 23.4804 61.6618 22.7423 61.0126 22.2135V22.203Z" fill="white"/>
</g>
<defs>
<clipPath id="clip0_792_814">
<rect width="100" height="88.7126" fill="white"/>
</clipPath>
</defs>
</svg>
