<svg width="100" height="88" viewBox="0 0 100 88" fill="none" xmlns="http://www.w3.org/2000/svg">
<g clip-path="url(#clip0_792_815)">
<path d="M98.3979 48.4086C96.6391 47.3321 94.3547 47.0735 92.3458 46.8616C90.958 46.6922 89.5571 46.6582 88.1627 46.7599C86.6073 46.8913 85.0222 47.0354 83.5812 47.6923C82.8546 48.0509 82.206 48.5497 81.6728 49.1599C81.1396 49.7702 80.7325 50.4799 80.4747 51.2481C79.8983 52.7485 79.6948 54.3929 79.3261 55.9483C79.1608 56.6433 78.9828 57.3342 78.754 58.0081C78.6989 58.1649 78.6437 58.3217 78.5844 58.4742L78.4954 58.7031C78.3693 58.9998 78.2278 59.2899 78.0716 59.5719C77.9953 59.7033 77.9148 59.8262 77.83 59.9534L77.7156 60.1144C77.4994 60.356 77.2918 60.5764 77.0417 60.7968C76.9824 60.8391 76.9231 60.8815 76.8595 60.9197C76.7354 61.002 76.6066 61.077 76.4738 61.1443L76.3128 61.2248L76.2746 61.246H76.2365C76.05 61.3053 75.872 61.3732 75.6813 61.4198C75.4202 61.4945 75.1514 61.5385 74.8802 61.5512C74.457 61.5827 74.032 61.5827 73.6088 61.5512C73.1886 61.5189 72.771 61.4595 72.3585 61.3732C72.1551 61.3308 71.9559 61.2926 71.7609 61.2333L71.638 61.1909C71.6974 61.1909 71.4304 61.0977 71.3965 61.0765C71.2651 61.0044 71.1422 60.9239 71.0193 60.8434L70.9345 60.7798L70.7777 60.6442C70.6505 60.5255 70.5319 60.4026 70.4174 60.2755C70.303 60.1483 70.303 60.1441 70.2479 60.0763C70.2337 60.062 70.2209 60.0464 70.2098 60.0297C70.2098 60.0297 70.1843 59.9958 70.1589 59.9619C69.9461 59.6606 69.7521 59.3463 69.5783 59.021C69.485 58.8514 69.4003 58.6777 69.3197 58.5039C69.2392 58.3302 69.1417 58.1182 69.0994 58.0123C68.5174 56.5458 68.0539 55.035 67.7135 53.4944C67.3603 51.9404 67.0227 50.3864 66.7005 48.8324C66.4832 47.5989 66.1642 46.3854 65.747 45.2045C65.3606 44.1258 64.7363 43.148 63.9203 42.3437C62.9101 41.4569 61.7428 40.767 60.4789 40.3094C59.3564 39.8337 58.1812 39.4937 56.9781 39.2965C55.7992 39.1503 54.6369 38.892 53.5071 38.5251L53.3291 38.4361C53.2146 38.381 53.1129 38.3132 53.0027 38.2496C53.0027 38.2496 53.0027 37.8894 53.185 37.847C53.3672 37.8046 53.7147 37.7283 53.7147 37.7283L54.0707 37.6944C54.3759 37.6732 54.6768 37.669 54.982 37.669C55.6728 37.669 56.3636 37.7326 57.0502 37.8004C57.3864 37.8343 57.7212 37.8724 58.0546 37.9148L58.3216 37.9487H58.3979L58.987 38.0292C60.4153 38.2327 61.8351 38.4742 63.2634 38.6607C64.3372 38.8375 65.4342 38.8188 66.5014 38.6056C68.2856 38.2157 69.9724 37.5122 71.7058 36.957C73.5706 36.3147 75.5435 36.0454 77.5122 36.1644C77.7664 36.1856 78.025 36.211 78.2793 36.2407H78.3132H78.364L78.5505 36.2704C78.8514 36.317 79.1523 36.3679 79.4532 36.4272C79.8833 36.5172 80.3078 36.6318 80.7247 36.7705H80.7459H80.7883C80.696 36.8677 80.5984 36.9597 80.4958 37.046C80.4026 37.1307 80.3009 37.207 80.2076 37.2876L80.1737 37.313H80.1525L79.8898 37.5037C79.555 37.741 79.2117 37.9699 78.8641 38.1945C78.0843 38.6946 77.2918 39.1735 76.5119 39.6694C74.8887 40.6993 73.1977 41.7885 71.8923 43.2125C70.7141 44.484 69.8326 46.2386 70.4852 47.9975C70.8267 48.7818 71.2776 49.5138 71.8245 50.1716C72.6128 51.2354 73.5198 52.3628 74.7446 52.9477C75.4315 53.3045 76.2207 53.4123 76.9781 53.2528C77.8 53.017 78.5146 52.5032 78.9998 51.7991C79.445 51.2421 79.7155 50.5659 79.7773 49.8555C79.8392 49.1451 79.6896 48.4323 79.3473 47.8067C79.0821 47.3444 78.7892 46.8985 78.47 46.4717C78.3282 46.2746 78.198 46.0694 78.0801 45.8572L77.9614 45.6198C77.936 45.552 77.8766 45.3867 77.8639 45.3316C77.8512 45.2765 77.8639 45.2342 77.8343 45.1875C77.8343 45.0943 77.8343 44.9968 77.8343 44.9036C77.8343 44.9036 77.8936 44.6493 77.9105 44.5942C77.9275 44.5391 77.9445 44.5094 77.9614 44.4586L78.0843 44.2297C78.2097 44.021 78.3514 43.8226 78.5081 43.6364C79.7203 42.8735 81.0087 42.2335 82.2759 41.5597C84.2339 40.5255 86.192 39.4745 88.0695 38.292C89.7224 37.2494 91.4812 36.1051 92.6594 34.5116C93.1273 33.9373 93.3806 33.2179 93.3757 32.4772C93.3374 32.0376 93.1913 31.6142 92.9503 31.2446C92.7093 30.875 92.3809 30.5705 91.994 30.3581C91.0593 29.8383 90.0335 29.5031 88.9722 29.3706C87.5058 29.1206 86.0055 28.9977 84.5433 28.8917C81.1528 28.6459 77.6181 28.4679 74.2276 28.968C71.371 29.3918 68.8366 30.9091 66.1114 31.7525C65.459 31.9515 64.7934 32.1044 64.1195 32.2102H64.0729H64.039L63.7635 32.2399L63.2464 32.2823C62.7845 32.3119 62.3267 32.3246 61.8648 32.3162C59.858 32.2651 57.861 32.0196 55.9016 31.583C54.4596 31.2839 53.0427 30.8744 51.6635 30.3581H51.638L51.5024 30.2988C52.6026 30.3009 53.7014 30.3773 54.7912 30.5276C56.5543 30.7523 58.3005 31.2015 60.0805 31.2524C61.1191 31.3435 62.162 31.1346 63.0854 30.6505C64.8442 29.5571 64.5179 27.4762 63.8016 25.8445C62.8904 23.7762 61.3986 21.9453 59.9534 20.2246C56.9172 16.7209 53.6973 13.3808 50.3072 10.2183C48.8358 8.74429 47.2184 7.42367 45.4799 6.27676C44.6114 5.72095 43.683 5.26459 42.7124 4.91629C41.9877 4.65776 41.157 4.42467 40.3941 4.66201C38.9404 5.11126 38.9235 6.70057 39.1227 7.93812C39.182 8.32803 39.271 8.7137 39.3515 9.09938L37.8894 8.62046C35.8974 7.94659 33.9055 7.27696 31.8923 6.66666C29.9529 6.03688 27.9697 5.551 25.9589 5.21297C24.645 5.02225 22.3437 4.71708 21.8521 6.41236C21.7832 6.77783 21.7953 7.15397 21.8876 7.51425C21.9798 7.87453 22.15 8.21019 22.3861 8.49756C23.088 9.44725 23.91 10.302 24.8315 11.0405C27.7347 13.4605 31.1888 15.1049 34.4734 16.9443C36.136 17.8464 37.7373 18.8573 39.2668 19.9703C40.5461 20.8777 41.6323 22.0302 42.4624 23.3609C42.838 23.992 43.0152 24.7215 42.9709 25.4545C42.9709 25.48 42.9709 25.5478 42.9709 25.5859C42.9709 25.6241 42.9413 25.7512 42.9243 25.836C42.8862 26.0063 42.8395 26.1746 42.7845 26.3403C42.6824 26.6635 42.54 26.9725 42.3606 27.26C41.5596 28.7306 40.4153 29.9852 39.5168 31.3965C38.4742 33.0282 37.8766 34.8252 38.1691 36.7705C38.4107 38.3556 39.3049 39.7372 39.5677 41.3265C39.6016 41.5469 39.5677 41.3986 39.5677 41.3265C39.574 41.4352 39.574 41.5442 39.5677 41.6529C39.5783 41.8152 39.5783 41.978 39.5677 42.1403C39.5677 42.1615 39.5295 42.3649 39.5295 42.3691C39.5295 42.4454 39.4914 42.5259 39.4702 42.6022C39.4155 42.8032 39.3431 42.9989 39.2541 43.1871C39.031 43.6181 38.7805 44.0343 38.5039 44.4331C38.3852 44.6154 38.2581 44.7934 38.1309 44.9672L38.0801 45.0392L37.8555 45.3062C37.6732 45.5181 37.4698 45.7004 37.2706 45.8911L37.1561 45.9716C37.029 46.0521 36.7323 46.1242 37.0502 46.0479C36.9724 46.0652 36.896 46.0879 36.8213 46.1157H36.7662L36.5628 46.0436L36.4568 45.9885L36.2619 45.8572L36.1771 45.7851L35.9016 45.5308C35.5329 45.1748 35.1981 44.7891 34.8591 44.4077C34.0595 43.4601 33.1423 42.6184 32.1297 41.903C30.8915 41.0724 29.4288 40.6406 27.9381 40.6654C26.4945 40.7229 25.1196 41.2975 24.0644 42.2844C21.8648 44.2467 20.7289 47.2091 19.2752 49.7054C18.9021 50.353 18.4961 50.9811 18.0589 51.5872L17.9487 51.7355L17.83 51.8839C17.7283 52.0153 17.6181 52.1424 17.5079 52.2653C17.2719 52.5317 17.0215 52.785 16.7578 53.0239L16.4399 53.291L16.1559 53.4944C15.8679 53.687 15.5646 53.8557 15.249 53.9987L15.1939 54.0199L15.1261 54.0453L14.8972 54.1343C14.7404 54.1894 14.5793 54.2403 14.4183 54.2827C14.2572 54.3251 14.164 54.3335 14.0368 54.3674C13.9097 54.4013 13.8885 54.3674 13.8122 54.3674C13.7359 54.3674 13.5961 54.3674 13.4901 54.3674C13.8292 54.3674 13.5579 54.3674 13.4393 54.3674L13.3757 54.3463L13.3079 54.342L13.2867 54.3166H13.2528C13.1723 54.2742 13.1765 54.2403 13.2104 54.2572L13.1595 54.2106C13.1409 54.1752 13.1196 54.1412 13.096 54.1089C13.083 54.0872 13.0717 54.0645 13.0621 54.0411C13.0324 53.9351 12.99 53.8334 12.9688 53.7317C12.9476 53.63 12.9264 53.5241 12.9095 53.4223C12.9773 53.7911 12.9095 53.4223 12.9095 53.3164C12.8925 53.0496 12.8925 52.7821 12.9095 52.5154C12.9095 52.4136 12.9307 52.3119 12.9392 52.2102C12.9392 52.3289 12.9773 51.9559 12.99 51.8881C13.0493 51.5575 13.1256 51.227 13.2104 50.9049C13.3821 50.2633 13.5944 49.6334 13.8461 49.0189C13.8461 49.0189 13.9097 48.862 13.9182 48.8409L13.9648 48.7391C14.0284 48.5866 14.0962 48.4382 14.1682 48.2899C14.3335 47.9423 14.5073 47.5991 14.6895 47.2642C15.0384 46.6332 15.4262 46.0246 15.8508 45.4418C15.8762 45.3994 16.0288 45.2002 16.0542 45.1663C16.1362 45.0618 16.2209 44.9558 16.3085 44.8485C16.5247 44.5899 16.7578 44.3357 16.9993 44.0941C17.4232 43.6703 17.9445 43.2888 18.3979 42.8608C18.9352 42.3517 19.4432 41.8126 19.9194 41.246C21.1372 39.8123 22.2357 38.2814 23.204 36.6688C25.2553 33.2782 26.9379 29.4639 27.332 25.5012C27.4781 24.2229 27.3803 22.9286 27.0438 21.6868C26.6554 20.4205 26.1898 19.1792 25.6495 17.9699C24.3529 14.9783 22.8782 12.0671 21.2333 9.25195C20.5001 7.98049 19.733 6.70903 18.898 5.51386C18.3172 4.59393 17.6364 3.7411 16.868 2.97095C15.4475 1.74731 13.7635 0.868347 11.9474 0.402612C10.3082 -0.0560372 8.58944 -0.155784 6.90821 0.110176C4.1322 0.559424 1.46639 2.57257 1.9453 5.65373C2.20383 7.349 3.36085 8.8027 4.5645 9.93853C5.40976 10.6995 6.30151 11.4072 7.23456 12.0576C7.91267 12.5577 8.7603 13.1807 9.32821 13.6215C10.6357 14.5918 11.8489 15.683 12.9519 16.8807C13.4002 17.3654 13.7952 17.8968 14.1301 18.4658C14.3213 18.7839 14.4954 19.1122 14.6514 19.449C14.6811 19.5084 14.7107 19.5719 14.7361 19.6313C14.7387 19.6467 14.7387 19.6625 14.7361 19.6779C14.7361 19.6779 14.7361 19.7118 14.7616 19.7415C14.8379 19.9364 14.9057 20.1314 14.9693 20.3263C15.1849 20.9926 15.327 21.6805 15.3931 22.3776C15.4687 23.2921 15.4573 24.2116 15.3592 25.124C15.1629 26.9717 14.6929 28.78 13.9648 30.4895C10.9684 37.2282 4.64079 41.6783 1.48334 48.3619C0.679558 49.9714 0.174108 51.7132 -0.00850375 53.5029C-0.101744 54.8591 0.415312 56.228 1.06799 57.3935C2.67427 60.3051 5.30618 62.6828 8.03133 64.556C9.36128 65.4907 10.7931 66.2713 12.2992 66.8828C13.5002 67.4055 14.8053 67.6447 16.1136 67.5821C17.663 67.5068 19.1717 67.0606 20.5128 66.281C21.642 65.5508 22.6087 64.5957 23.3524 63.4753C24.0259 62.4444 24.5939 61.3482 25.0477 60.2034C25.3189 59.5719 25.5732 58.932 25.8317 58.3005C25.9377 58.0377 26.0479 57.7792 26.1538 57.5164V57.4867C26.175 57.4359 26.1962 57.385 26.2216 57.3342C26.2852 57.1816 26.353 57.029 26.4208 56.8807C26.6552 56.3462 26.9198 55.8255 27.2134 55.321C27.3447 55.1049 27.4804 54.8972 27.6372 54.6853L27.8067 54.4607C27.8745 54.3802 27.9381 54.2996 28.0101 54.2191C28.1885 54.0273 28.3767 53.8448 28.5738 53.6724L28.6289 53.6215L28.684 53.5834C28.8027 53.5029 28.9214 53.4223 29.0443 53.3503C29.1672 53.2782 29.2519 53.2359 29.3621 53.1808L29.4935 53.1172C29.7648 53.0366 30.0275 52.9392 30.3072 52.8841L30.4471 52.8587H30.498H30.5191L31.1591 52.7993C31.5533 52.7654 31.9517 52.7442 32.35 52.74C32.634 52.74 32.9137 52.74 33.1977 52.7739H33.3333C33.452 52.7993 33.5749 52.8163 33.6978 52.8502L33.9139 52.9222L33.9648 52.9477H33.986C33.986 52.9477 33.986 52.9476 33.986 52.9264V52.9519L34.0411 52.9858C34.0411 52.9858 34.0411 52.9858 34.0411 53.0112H34.0156L34.0411 53.0494C34.0411 53.1129 34.0411 53.1765 34.0411 53.2401C34.0411 53.3037 34.0029 53.4011 33.9818 53.4817C33.9606 53.5622 33.9267 53.6724 33.8927 53.7656C33.8927 53.7953 33.8504 53.8885 33.8207 53.9564L33.719 54.1979C33.6724 54.2954 33.6215 54.3971 33.5706 54.4946C33.452 54.7277 33.3291 54.9565 33.2019 55.1854C32.6086 56.2407 31.9559 57.2537 31.3371 58.292C29.947 60.6357 28.612 63.1829 28.4297 65.9547C28.328 67.5143 28.8069 68.8578 29.3113 70.303C29.6122 71.1507 29.8961 72.0407 30.125 72.9222C30.2182 73.2782 30.303 73.63 30.3708 73.9902C30.4047 74.1725 30.4386 74.3547 30.4641 74.537V74.5751C30.4641 74.6853 30.4641 74.7913 30.4937 74.8972C30.5128 75.2007 30.5128 75.505 30.4937 75.8084C30.4937 75.8932 30.4217 76.317 30.4937 75.9949C30.4641 76.1433 30.4386 76.2958 30.4005 76.4442C30.3623 76.5925 30.32 76.6815 30.2861 76.8002L30.2225 76.9315C30.167 77.0413 30.1047 77.1474 30.036 77.2494C30.0148 77.2791 29.9894 77.3088 29.9682 77.3427C29.9435 77.3768 29.9166 77.4094 29.8877 77.4401C29.7859 77.5418 29.6927 77.6478 29.5868 77.7453C29.4808 77.8427 29.4808 77.8301 29.4342 77.8767H29.4087C29.1366 78.0643 28.8536 78.2355 28.5611 78.3895C27.9015 78.7028 27.2112 78.9471 26.5014 79.1185C26.353 79.1608 26.2004 79.1947 26.0479 79.2286H25.997H25.9292C25.6579 79.2286 25.3867 79.2625 25.1155 79.2625C24.4924 79.2625 23.844 79.2159 23.2464 79.1693C21.8054 79.0634 20.3687 78.9108 18.9235 78.9023C17.6192 78.8255 16.3147 79.0472 15.1091 79.5507C14.5492 79.8242 14.0825 80.2568 13.7673 80.7943C13.4522 81.3319 13.3027 81.9504 13.3375 82.5726C13.4647 84.6917 15.1176 85.9631 16.94 86.7133C19.0845 87.5906 21.5088 87.8279 23.8059 87.8745C26.422 87.9319 29.0356 87.6772 31.5914 87.1159C33.6427 86.6582 35.8084 85.9843 37.4444 84.6154C38.094 84.1025 38.5631 83.3958 38.7836 82.598C38.915 81.8912 38.9662 81.1718 38.9362 80.4535C38.9357 79.7098 38.8776 78.9673 38.7624 78.2327C38.5887 77.0841 38.2369 75.9737 37.9784 74.8421C37.5977 73.1471 37.3946 71.4171 37.3723 69.68C37.3723 69.4088 37.3723 69.1418 37.3723 68.8705C37.3977 68.7815 37.4104 68.6883 37.4359 68.5993C37.4613 68.5103 37.4867 68.4467 37.5122 68.3662C37.5376 68.2857 37.6817 68.0737 37.7622 67.9424C37.8173 67.883 37.8682 67.8194 37.9233 67.7643C37.9795 67.7046 38.0389 67.6481 38.1013 67.5948C38.1267 67.5694 38.2072 67.5058 38.2496 67.4719L38.3344 67.4126L38.5336 67.2897C38.7031 67.188 38.8811 67.1032 39.0591 67.0142H39.0845L39.3558 66.9125C39.5634 66.8404 39.7796 66.7811 39.9873 66.726C40.1949 66.6709 40.3772 66.6327 40.5721 66.5946L40.8603 66.5395L41.1612 66.4971C42.0973 66.399 43.039 66.3664 43.9796 66.3997C44.5221 66.3997 45.0646 66.459 45.6029 66.5183L45.997 66.5607L46.2301 66.5904L46.531 66.6328L46.9548 66.7006C48.0332 66.8781 49.1013 67.113 50.1547 67.4041C51.1527 67.6739 52.1335 68.0037 53.0917 68.3916L53.2274 68.4467L53.541 68.5865C53.7656 68.6883 53.9648 68.7942 54.2106 68.9044C54.5836 69.0909 54.9481 69.2943 55.3041 69.5147C55.4651 69.6164 55.6262 69.7224 55.783 69.8326L55.9652 69.964L56.0669 70.0487C56.3085 70.2522 56.4907 70.5065 56.7323 70.7141L56.8341 70.8625C56.868 70.9175 56.8934 70.9769 56.9273 71.032C56.9612 71.0871 56.9485 71.1337 56.9654 71.193C56.9654 71.1422 56.9993 71.1252 56.9909 71.2651C56.9925 71.2721 56.9925 71.2793 56.9909 71.2863C56.9909 71.2439 57.0205 71.2354 56.9909 71.3117V71.3371V71.3753C56.9886 71.3893 56.9886 71.4036 56.9909 71.4177C56.989 71.4079 56.989 71.3978 56.9909 71.388C56.9909 71.4134 56.9909 71.4389 56.9697 71.4643L56.8807 71.6211C56.8807 71.6211 56.8807 71.5999 56.9019 71.6211C56.923 71.6423 56.8595 71.6847 56.8213 71.7228C56.7747 71.8033 56.7917 71.7694 56.8213 71.7228L56.7578 71.7864L56.5882 71.9517L56.4992 72.028L56.3382 72.1509L56.1136 72.295C55.9567 72.3924 55.7957 72.4857 55.6304 72.5705L55.5287 72.6128L55.0413 72.7951C53.0493 73.524 51.0362 74.1767 49.1078 75.0413C47.1795 75.9059 44.9756 77.0036 43.8991 78.8853C43.6356 79.3276 43.4691 79.8208 43.4106 80.3323C43.3521 80.8437 43.4031 81.3618 43.5601 81.8521C43.9839 83.1447 45.0095 84.111 46.069 84.912C48.0059 86.3827 50.3962 86.7641 52.7569 87.0311C55.8213 87.3517 58.9038 87.465 61.9834 87.3702C64.9502 87.3151 67.9169 87.154 70.8836 86.8404C72.011 86.7217 73.1426 86.5861 74.2742 86.3827C75.7321 86.1199 77.3214 85.7385 78.5632 84.9036C79.6101 84.2 80.3899 83.0472 79.9025 81.7588C79.4532 80.5679 78.275 79.7923 77.1604 79.2922C75.7502 78.6659 74.2412 78.2916 72.7018 78.1861C71.6649 78.1401 70.626 78.194 69.5995 78.3471C66.7345 78.6946 63.8779 79.1057 61.0044 79.3727C59.6756 79.516 58.3401 79.5896 57.0036 79.5931C56.7662 79.5931 56.5247 79.5931 56.2831 79.5719L55.9483 79.5423H55.855C55.7067 79.5084 55.5584 79.466 55.4312 79.4363L55.41 79.4151L55.4778 79.3473L55.5414 79.288L55.7533 79.1439C55.9398 79.021 56.1305 78.9108 56.3297 78.8048C56.5289 78.6989 56.7535 78.5802 56.9951 78.4742L57.3553 78.3132H57.3765L57.6054 78.22C59.761 77.3996 61.97 76.727 64.217 76.2068C65.7978 75.8169 67.8194 75.516 68.1797 73.5876C68.3958 72.4348 67.9381 71.2821 67.3702 70.2988C66.6912 69.1693 65.8834 68.1225 64.9629 67.1795C64.0954 66.2646 63.1619 65.4146 62.1699 64.6366C61.4151 63.9655 60.5563 63.4216 59.627 63.0261C58.116 62.5575 56.5467 62.3036 54.965 62.2717C53.3969 62.1784 51.8245 62.2038 50.2522 62.153C49.9343 62.153 49.6164 62.1276 49.2943 62.1064L48.8196 62.0682C48.7476 62.0682 48.3534 62.0089 48.4213 62.0216C48.1712 61.9792 47.9254 61.9369 47.6838 61.8733C47.5609 61.8436 47.4422 61.8097 47.3193 61.7673L47.1837 61.7207C47.0989 61.6741 47.0099 61.6317 46.9252 61.5808C46.9464 61.6063 46.8785 61.5808 46.8531 61.5384L46.7853 61.4918L46.8446 61.53C46.7854 61.4622 46.7217 61.3985 46.6539 61.3393C46.8785 61.5427 46.7048 61.3393 46.62 61.2375L46.5819 61.1274C46.5754 61.0888 46.5669 61.0506 46.5565 61.0129C46.5565 60.89 46.5565 60.7671 46.5565 60.6442C46.5565 60.5891 46.5565 60.534 46.5565 60.4831V60.4577V60.3899C46.7043 59.695 46.9527 59.0254 47.2939 58.4022C47.4718 58.081 47.667 57.7697 47.8788 57.4698C47.9678 57.3427 48.061 57.2197 48.1585 57.0926L48.1966 57.046L48.4085 56.779C49.2562 55.7533 50.1971 54.7404 50.5276 53.4181C50.9515 51.5914 50.2267 49.8072 49.4342 48.1966C49.1259 47.6089 48.8747 46.9929 48.684 46.3573C48.6035 46.0775 48.5314 45.7978 48.4764 45.5096C48.4764 45.4503 48.4552 45.391 48.4467 45.3359C48.4467 45.1918 48.4212 45.0519 48.417 44.9121C48.4128 44.7722 48.417 44.6874 48.417 44.5772C48.417 44.5518 48.417 44.5221 48.417 44.4967C48.4679 44.3314 48.5103 44.1449 48.5526 43.9754L48.5781 43.9245L48.7137 43.6999L48.9298 43.488L49.1544 43.3524C49.2095 43.3227 49.2774 43.2973 49.3325 43.2634L49.4299 43.2295C49.6122 43.1711 49.7975 43.1229 49.9851 43.0854C50.0911 43.0854 50.409 43.0515 50.0487 43.0854L50.4174 43.0472C50.8625 43.0211 51.309 43.031 51.7525 43.0769L51.9729 43.0981C51.905 43.0981 52.1678 43.1278 52.2356 43.1405C52.5026 43.1829 52.7654 43.238 53.0282 43.2973C53.5367 43.416 54.0326 43.5601 54.5242 43.7211L55.2066 43.9712L55.4694 44.0771L55.783 44.217C56.2449 44.4289 56.69 44.6408 57.1265 44.9163C57.3172 45.0307 57.5079 45.1452 57.6902 45.2681C57.7876 45.3316 57.8809 45.3952 57.9699 45.463C58.0589 45.5308 58.1691 45.6156 58.2115 45.6452C58.5014 45.8742 58.7721 46.1266 59.0209 46.3997C59.0633 46.4463 59.1057 46.5056 59.1523 46.5565C59.1184 46.5141 59.11 46.4802 59.1778 46.5819L59.199 46.6073C59.2971 46.7536 59.3849 46.9065 59.4617 47.0651C59.5253 47.2007 59.5846 47.3363 59.644 47.4889C59.6736 47.5609 59.6991 47.6287 59.7287 47.6965C59.8474 47.9932 59.9618 48.2899 60.0678 48.5908C60.2839 49.1841 60.4916 49.7902 60.6526 50.3963C61.0214 51.6381 61.3265 52.8926 61.619 54.1555C62.1345 56.655 62.7782 59.1263 63.5473 61.5597C64.3314 63.8398 65.4206 66.0945 67.1795 67.794C69.1587 69.7012 71.7482 70.6124 74.4522 70.8413C76.2186 70.9574 77.9925 70.865 79.7372 70.5658C81.4325 70.3073 83.1829 69.8453 84.5645 68.8154C85.6775 68.0067 86.4675 66.8293 86.7938 65.4927C87.0577 64.2112 87.1021 62.8942 86.9252 61.5978C86.8489 60.8561 86.7472 60.1187 86.6455 59.3812C86.6243 59.2286 86.6031 59.0803 86.5861 58.9277C86.5861 59.004 86.5607 58.7497 86.5607 58.7328C86.5607 58.7158 86.5395 58.5887 86.531 58.5209C86.4802 58.1267 86.4335 57.7326 86.3954 57.3384C86.3191 56.6094 86.2683 55.8805 86.264 55.1473C86.264 54.982 86.264 54.8124 86.264 54.6471C86.264 54.5963 86.3191 54.2954 86.264 54.5836C86.2698 54.5278 86.2797 54.4726 86.2937 54.4183C86.3233 54.2912 86.353 54.1682 86.3912 54.0411C86.3912 54.0411 86.3912 54.0157 86.3912 53.9987L86.459 53.8673C86.4744 53.8396 86.4914 53.8127 86.5098 53.7868C86.6031 53.7275 86.8404 53.5622 86.5437 53.7275C86.6174 53.6887 86.6882 53.6448 86.7556 53.5961L86.6921 53.6173L86.7768 53.5876C86.8192 53.5579 86.8743 53.5452 86.8658 53.558L87.1456 53.4901H87.2685C87.5343 53.4795 87.8006 53.488 88.0652 53.5156H88.2178H88.3238L88.7264 53.5834C89.0104 53.6385 89.2943 53.7021 89.574 53.7699C90.2013 53.9224 90.8201 54.0962 91.4388 54.2615C93.7826 54.8887 96.6349 55.6219 98.5759 53.7063C99.3388 52.9561 100.064 51.9601 100.004 50.837C99.9642 50.3293 99.7958 49.8401 99.5149 49.4153C99.2339 48.9905 98.8495 48.644 98.3979 48.4086ZM81.0426 36.9655L81.1273 37.0545C81.0934 37.0545 81.051 37.0036 81.0214 36.9527L81.0426 36.9655ZM55.2278 79.6609C55.2066 79.7118 55.2278 79.6948 55.2278 79.6609V79.6609ZM55.2786 79.5592C55.2659 79.6864 55.2659 79.644 55.2659 79.5677L55.2786 79.5592ZM56.7917 70.6802C56.7493 70.6209 56.6984 70.5319 56.7917 70.6802V70.6802ZM53.2952 68.4297C53.1468 68.3704 53.2401 68.417 53.2952 68.4382V68.4297ZM48.4467 20.1568C48.0418 20.1568 47.646 20.0368 47.3094 19.8118C46.9728 19.5869 46.7104 19.2672 46.5555 18.8931C46.4005 18.5191 46.36 18.1075 46.439 17.7104C46.518 17.3133 46.7129 16.9486 46.9992 16.6623C47.2855 16.376 47.6502 16.181 48.0473 16.1021C48.4444 16.0231 48.856 16.0636 49.23 16.2185C49.6041 16.3735 49.9238 16.6359 50.1487 16.9725C50.3737 17.3091 50.4937 17.7049 50.4937 18.1098C50.4937 18.3786 50.4408 18.6448 50.3379 18.8931C50.235 19.1415 50.0842 19.3672 49.8942 19.5573C49.7041 19.7473 49.4784 19.8981 49.23 20.001C48.9817 20.1039 48.7155 20.1568 48.4467 20.1568ZM77.6902 60.1738C77.7961 60.0254 77.7241 60.1356 77.6902 60.1738V60.1738Z" fill="white"/>
</g>
<defs>
<clipPath id="clip0_792_815">
<rect width="100" height="87.9212" fill="white"/>
</clipPath>
</defs>
</svg>
