<svg width="100" height="89" viewBox="0 0 100 89" fill="none" xmlns="http://www.w3.org/2000/svg">
<g clip-path="url(#clip0_792_816)">
<path d="M99.0784 49.433C96.9888 48.2098 94.2875 47.5727 91.8582 47.1905C89.3098 46.7912 86.7233 46.5194 84.1367 46.341C82.9518 46.2476 81.7456 46.1542 80.5734 46.1202C79.1293 46.0777 77.6386 46.1202 76.186 46.1839C74.9411 46.19 73.7006 46.3324 72.4867 46.6086C70.7199 47.097 69.3226 48.0272 68.7959 50.0064C68.6218 50.6392 68.4604 51.2805 68.2735 51.9473C68.0866 52.6141 67.8488 53.1068 67.7129 53.5995C67.6744 53.7303 67.6261 53.8581 67.5685 53.9817C67.543 54.0454 67.509 54.1007 67.4793 54.1601L67.4156 54.2621C67.3447 54.3505 67.2681 54.4342 67.1862 54.5126L67.0376 54.6358L66.9484 54.6952H66.9144C66.7866 54.7589 66.6529 54.8101 66.5152 54.8482L66.3326 54.8906C66.3708 54.8906 66.1797 54.8906 66.1754 54.8906C65.7891 54.9277 65.3994 54.9048 65.0202 54.8227C64.5443 54.7354 64.0757 54.6119 63.6186 54.4532C63.3213 54.3512 63.0283 54.2366 62.7394 54.1176C62.6418 54.0794 62.5483 54.0369 62.4549 53.9902L62.319 53.918C62.2879 53.9035 62.2581 53.8864 62.2298 53.8671C61.5416 53.4322 60.9468 52.8648 60.4799 52.1979C59.6448 51.006 58.9467 49.7237 58.3988 48.3755C57.9741 47.3689 57.5494 46.341 57.1756 45.3132C56.9511 44.6058 56.5524 43.9661 56.0161 43.453C55.3385 42.9286 54.5519 42.5628 53.7142 42.3827C53.0559 42.2 52.4103 42.1873 51.7944 42.0471L51.5566 41.9834L51.4462 41.9452L51.3909 41.924C51.3326 41.8976 51.2759 41.8678 51.2211 41.8348L51.1828 41.8093C51.1648 41.7934 51.1478 41.7764 51.1319 41.7583V41.7158L51.1871 41.6861C51.2439 41.6653 51.3021 41.6482 51.3612 41.6352H51.4589L51.7265 41.6097C52.1083 41.5843 52.4914 41.5843 52.8732 41.6097C53.6717 41.6521 54.5721 41.7583 55.5489 41.8135C55.9038 41.8392 56.2601 41.8392 56.615 41.8135C57.3057 41.7178 57.9856 41.5557 58.6452 41.3294C60.6541 40.722 62.663 40.0297 64.7101 39.6984C65.4139 39.5967 66.1229 39.5358 66.8337 39.5158H68.0654C68.3924 39.5158 68.7237 39.5158 69.0592 39.5498L69.484 39.5838H69.6284C69.5647 39.6262 69.4967 39.673 69.4288 39.7112C69.3608 39.7494 69.2589 39.8174 69.1697 39.8641L68.9658 39.9788C68.5029 40.2166 68.0314 40.4417 67.5685 40.6456C66.477 41.134 65.36 41.6012 64.2684 42.0854C62.8244 42.7267 60.5012 43.4487 59.9278 44.9989C59.7197 45.5638 60.0807 46.1584 60.6795 46.7275C61.5587 47.6411 62.5817 48.4044 63.7078 48.987C64.5742 49.4106 65.5521 49.5503 66.5024 49.3863C67.4368 49.2036 68.2565 48.5368 68.4646 47.9422C68.8511 46.8125 67.3816 45.8484 66.6596 45.1603C66.6171 45.1179 66.5747 45.0711 66.5364 45.0244C66.5109 44.9862 66.4472 44.829 66.4303 44.8078C66.4359 44.7485 66.4359 44.6888 66.4303 44.6294C66.442 44.5851 66.4592 44.5423 66.4812 44.502C66.4985 44.4652 66.5183 44.4297 66.5407 44.3958L66.5661 44.3619C66.7227 44.1707 66.9127 44.0095 67.1268 43.8862L67.2245 43.8437C68.0739 43.5294 69.004 43.2533 69.9724 42.9475C73.4721 41.839 76.9505 40.6498 80.327 39.244C81.958 38.5645 88.367 36.0926 87.2839 33.8331C86.6851 32.5589 84.1962 32.5589 82.8754 32.5589C80.2509 32.6283 77.6335 32.8652 75.0393 33.2682C72.3126 33.6462 69.5859 34.0879 66.8974 34.6613C65.8739 34.8821 64.8545 35.1497 63.8522 35.464C62.9799 35.7486 62.1284 36.0935 61.3039 36.4961C60.0297 37.1034 58.6834 37.8679 57.4135 38.3266C56.2422 38.765 54.9924 38.9545 53.7439 38.883C52.7323 38.8513 51.7355 38.6309 50.8048 38.2332L50.6859 38.178H50.6477C50.941 38.1672 51.2347 38.1757 51.5269 38.2034C52.5972 38.2969 53.7269 38.522 54.8099 38.3776C55.2065 38.3348 55.5893 38.2072 55.9322 38.0035C56.2752 37.7998 56.5703 37.5247 56.7976 37.1969C57.2125 36.5091 57.3635 35.6941 57.2223 34.9034C56.8995 32.5717 55.8845 30.3801 54.9671 28.2268C53.9605 25.8654 52.8435 23.5549 51.6968 21.2487C50.1635 18.1185 48.5241 14.9586 46.3793 12.3296C45.4024 11.1319 44.2557 9.93841 42.7946 9.25461C41.6054 8.70672 40.807 9.92142 40.7857 10.9832C40.7997 12.5971 41.0326 14.2016 41.478 15.7528C41.5545 16.0416 41.6309 16.3304 41.7031 16.6022C40.7008 15.9949 39.6942 15.3748 38.6834 14.7845C35.8335 13.0856 33.0219 11.3273 30.0446 9.88321C28.8214 9.29285 24.175 7.21171 24.6634 10.4226C24.9182 12.0917 26.0777 13.5867 27.1565 14.8397C29.0652 17.0294 31.129 19.079 33.3319 20.9726C35.5744 22.9221 37.8892 24.914 40.1996 26.7106C41.9095 27.9785 43.4621 29.4456 44.8248 31.0809C45.3933 31.7693 45.8622 32.5342 46.2179 33.3531C46.5301 33.9932 46.6412 34.7129 46.5364 35.4173C46.2752 36.5508 45.8457 37.6388 45.2623 38.6451C45.0073 39.1741 44.8848 39.7572 44.9055 40.344C44.9484 40.8893 45.1031 41.4199 45.3599 41.9027C45.4576 42.1108 45.5638 42.3274 45.6487 42.5143C45.6955 42.6163 45.7337 42.7139 45.7677 42.8116C45.7962 42.9036 45.8188 42.9972 45.8356 43.092C45.8418 43.32 45.8013 43.5469 45.7166 43.7587C45.6318 43.9705 45.5047 44.1627 45.343 44.3236C45.2307 44.4781 45.1026 44.6205 44.9607 44.7483C44.897 44.8078 44.829 44.8588 44.7568 44.914C44.7172 44.9392 44.6761 44.9618 44.6337 44.9819H44.5572H44.5233H44.4638L44.3873 44.948L44.2769 44.8885L44.158 44.8036C44.0348 44.7059 43.9202 44.604 43.8012 44.4978C43.5421 44.2642 43.2746 44.0093 42.9773 43.7842C41.9273 43.0713 40.7153 42.6332 39.4521 42.5101C37.9651 42.3173 36.4558 42.6156 35.154 43.3595C33.9298 44.1488 32.8315 45.1181 31.8964 46.2349C31.3697 46.804 30.8133 47.3986 30.1975 48.0102C29.5977 48.6179 28.9485 49.1748 28.2565 49.6751C27.4759 50.2533 26.6181 50.7193 25.7082 51.0597C25.22 51.2137 24.7237 51.3413 24.2217 51.4419L23.9584 51.5056L23.8055 51.5396C23.6993 51.5396 23.3001 51.5948 23.2491 51.6076H23.0877L22.9008 51.5778L22.7819 51.5311L22.6332 51.4079C22.6078 51.3655 22.5271 51.255 22.5101 51.2168C22.4931 51.1786 22.4506 51.0172 22.4379 50.9832C22.4168 50.7419 22.4297 50.4989 22.4761 50.2612C22.4866 50.1911 22.5008 50.1217 22.5186 50.0531V50.0276C22.5191 50.0177 22.5191 50.0078 22.5186 49.9979C22.5653 49.8492 22.6248 49.7006 22.68 49.5731C22.8277 49.2268 22.9979 48.8906 23.1896 48.5666C23.5831 47.9053 24.0489 47.29 24.5785 46.7318C25.6883 45.5336 27.0083 44.549 28.4731 43.8267C31.4462 42.302 34.6825 40.3865 36.2285 37.286C37.0482 35.6509 36.6532 33.7736 36.2073 32.1427C35.7825 30.6434 34.8949 29.2206 34.0837 27.8573C31.0597 22.7819 27.6619 17.8297 24.2897 12.9412C22.663 10.5755 21.0066 8.1461 19.227 5.97154C17.4758 3.77883 15.2359 2.02619 12.6863 0.853688C9.21639 -0.692288 3.402 -0.420478 2.21279 3.97536C1.52899 6.52367 3.66531 8.80442 5.27924 10.4141C7.95072 13.0856 11.4037 15.154 14.4064 17.4899C16.6957 19.2695 19.0401 21.1765 20.8707 23.3977C22.3232 25.1646 23.6144 27.2202 24.09 29.4415C24.5148 31.5226 24.6125 33.4423 22.9221 35.0648C21.2317 36.6872 19.0699 37.9359 17.0015 39.0868C11.6288 42.0854 5.27501 44.9182 1.65216 49.8917C0.237843 51.8369 -0.688038 53.918 0.649826 55.8377C1.98769 57.7575 4.95645 58.9042 7.26267 59.8556C9.83303 60.9106 12.4886 61.7447 15.2007 62.3487C17.3284 62.8831 19.5281 63.0724 21.7159 62.9093C24.175 62.6587 26.5619 61.495 28.6558 60.1656C30.4422 58.9851 32.0377 57.5385 33.3871 55.876C34.4745 54.6116 35.4749 53.2749 36.3814 51.8751L36.5003 51.6798L36.5683 51.5778L36.7849 51.2465C36.9548 50.9875 37.1331 50.7369 37.3158 50.4948C37.4984 50.2527 37.6513 50.0701 37.8297 49.8704L38.0973 49.5859L38.144 49.5434L38.3181 49.3863C38.4937 49.234 38.6781 49.0922 38.8703 48.9615L39.1251 48.8087C39.2567 48.7322 39.3926 48.6685 39.5498 48.6048H39.5753L39.7621 48.5368C39.8938 48.4901 40.0212 48.4519 40.1529 48.4137L40.3525 48.3627H40.4375L41.0915 48.2438C41.3931 48.1928 41.6904 48.1546 41.9749 48.1291H42.2595H42.4761L42.595 48.1546H42.629C42.629 48.1546 42.629 48.1801 42.663 48.1928C42.6646 48.2239 42.6646 48.2551 42.663 48.2863L42.6375 48.3457C42.6064 48.4213 42.5709 48.495 42.5313 48.5666L42.4506 48.711L42.3317 48.8894C42.2128 49.0677 42.0769 49.2546 41.9325 49.4373C41.1722 50.4014 40.4035 51.374 39.6517 52.3508C38.6185 53.6759 37.7167 55.0983 36.959 56.598C36.5725 57.3723 36.287 58.1931 36.1096 59.0401C35.9569 60.0404 35.9057 61.0536 35.9567 62.0641C35.9495 63.259 35.88 64.4526 35.7486 65.6403C35.7037 66.1056 35.6242 66.567 35.5107 67.0206C35.4555 67.2669 35.3918 67.526 35.3196 67.7851C35.2856 67.9082 35.2474 68.0314 35.2092 68.1588L35.1667 68.2947C35.1552 68.3196 35.1452 68.3451 35.137 68.3712C35.052 68.6048 34.9543 68.8426 34.8482 69.0762C34.8184 69.1484 34.7845 69.2164 34.7505 69.2886L34.6485 69.4882C34.5254 69.7133 34.3937 69.9129 34.2536 70.1423V70.1762L34.2238 70.2145C34.1219 70.3589 34.0157 70.4905 33.9053 70.6392C33.7949 70.7878 33.7354 70.843 33.6504 70.9407L33.4976 71.1064C33.3234 71.2848 33.1408 71.4547 32.9624 71.6161C32.5295 72.0094 32.0634 72.3647 31.5693 72.6778C31.0215 73.0282 30.4543 73.3473 29.8705 73.6335C29.8068 73.6674 29.7388 73.6929 29.6708 73.7227C29.4755 73.7864 29.2843 73.8373 29.0932 73.8798C28.2727 74.052 27.441 74.1655 26.6044 74.2196C24.6391 74.3473 22.6913 74.6703 20.79 75.1837C19.522 75.5643 18.3493 76.2099 17.3497 77.0779C16.4027 77.9603 15.7104 79.081 15.3451 80.3228C15.3052 80.4141 15.2752 80.5095 15.2559 80.6073C15.2078 80.7743 15.1849 80.9475 15.1879 81.1213C14.9034 83.9669 16.5216 86.2689 19.3884 87.233C22.9603 88.4307 26.6383 88.2353 30.1593 87.131C31.9733 86.5347 33.6904 85.6762 35.2559 84.5827C36.824 83.5131 38.1401 82.1144 39.1123 80.4842C40.4969 78.1864 40.8749 75.2092 41.1595 72.5164C41.4058 70.1763 41.4143 67.7511 41.5545 65.4194C41.6352 64.0815 41.8008 62.714 41.9792 61.3761C42.0769 60.7178 42.1788 60.0679 42.3105 59.4521L42.3487 59.2907C42.3869 59.1675 42.4294 59.0444 42.4761 58.9255C42.4761 58.883 42.5313 58.7938 42.5568 58.7301C42.5823 58.6664 42.6248 58.5942 42.663 58.5262C42.7012 58.4583 42.7267 58.4158 42.7607 58.3563C42.7946 58.2969 42.8838 58.1822 42.9178 58.1397C42.9518 58.0973 43.0495 57.9783 43.1132 57.9061L43.1429 57.8722L43.1854 57.8297C43.3397 57.6852 43.5028 57.5504 43.6738 57.4262L43.7715 57.3582C43.8508 57.3054 43.933 57.2572 44.0178 57.2139C44.2006 57.1148 44.3893 57.0268 44.5827 56.9505C44.7399 56.8868 44.9013 56.8359 45.0542 56.7891L45.2665 56.7381C45.3769 56.7127 45.4874 56.6914 45.5978 56.6745C45.9936 56.6101 46.3946 56.5831 46.7955 56.5938C46.9951 56.5938 47.1905 56.615 47.3859 56.632L47.6789 56.6702L47.8276 56.6957H47.938C48.7841 56.8665 49.6029 57.1523 50.3716 57.5451C50.7809 57.7506 51.1767 57.9818 51.5566 58.2374L51.8326 58.4243L51.9686 58.522C52.1512 58.6621 52.3381 58.815 52.5249 58.9722C52.869 59.2698 53.1939 59.589 53.4976 59.9278L53.5825 60.0297C53.6462 60.1062 53.7057 60.1869 53.7694 60.2718C53.8994 60.4493 54.0199 60.6336 54.1304 60.824C54.1279 60.8394 54.1279 60.8552 54.1304 60.8707C54.1686 60.9514 54.2111 61.0406 54.2493 61.1297C54.2574 61.1559 54.2673 61.1815 54.279 61.2062C54.279 61.2826 54.3258 61.3591 54.3428 61.4398C54.3597 61.5205 54.3428 61.5247 54.3428 61.5672V61.7244C54.3428 61.8051 54.3088 61.8815 54.2875 61.958L54.2535 62.0344C54.2153 62.1278 54.1729 62.2085 54.1304 62.2935L54.0667 62.3997L54.0412 62.4336C53.9148 62.6038 53.7726 62.7617 53.6165 62.9051C53.5871 62.9381 53.5543 62.968 53.5188 62.9943L53.4551 63.0452C52.7246 63.5676 51.9346 64.0093 51.1659 64.553C50.0278 65.3539 48.9555 66.2444 47.9592 67.216C46.7411 68.4208 45.7891 69.8677 45.1646 71.4632C43.5379 75.6509 44.7654 81.7753 48.35 84.3109C49.8515 85.3043 51.5441 85.9726 53.3192 86.2731C55.4181 86.6805 57.5519 86.8811 59.6899 86.8719C63.6871 86.8972 67.6749 86.4842 71.5821 85.6403C73.332 85.3197 74.9957 84.6368 76.4663 83.6356C78.4965 82.1703 77.8382 79.3289 76.7042 77.5281C75.4045 75.464 73.0686 73.8586 70.8431 72.8138C69.2998 72.0282 67.6077 71.578 65.8781 71.4929C62.6163 71.4164 59.4734 72.3423 56.2625 72.5759C55.6946 72.624 55.1228 72.5925 54.5636 72.4825C54.5211 72.4825 54.3767 72.423 54.3342 72.4018C54.2918 72.3805 54.2323 72.3466 54.1771 72.3168L54.1261 72.2701L54.1983 72.1257L54.2281 72.0662L54.2918 71.9643C54.4742 71.6956 54.6773 71.4414 54.8991 71.2041C55.0969 70.9884 55.3067 70.7842 55.5277 70.5925L55.6424 70.4948L55.8335 70.3376L56.2964 69.9894C56.84 69.5914 57.4074 69.2268 57.9953 68.8978C58.9286 68.3778 59.8964 67.9223 60.8919 67.5345C61.6776 67.2245 62.5908 66.9187 62.7437 65.7167C62.956 63.8989 61.8263 61.9962 60.824 60.5309C59.794 59.021 58.651 57.5912 57.405 56.254C56.6401 55.3552 55.7719 54.5498 54.8184 53.8543C54.3104 53.5527 53.7545 53.3401 53.1748 53.2257C52.6182 53.0823 52.0494 52.9913 51.4759 52.9539C50.9535 52.9157 50.4396 52.9029 49.9299 52.8775C49.7091 52.8775 49.5052 52.8477 49.2759 52.818H49.1272H49.0762C48.97 52.7925 48.8681 52.7628 48.7662 52.7288C48.6851 52.6992 48.6057 52.6652 48.5284 52.6269L48.4859 52.6014L48.4179 52.5462C48.3866 52.5227 48.3581 52.4956 48.333 52.4655C48.3075 52.4315 48.2905 52.3975 48.2693 52.3635C48.2603 52.3401 48.2531 52.316 48.248 52.2914C48.2464 52.2701 48.2464 52.2488 48.248 52.2276V52.13V52.0535C48.2437 51.9913 48.2437 51.9288 48.248 51.8666C48.248 51.8666 48.248 51.7987 48.248 51.7647C48.2792 51.5976 48.3132 51.4362 48.35 51.2805C48.4909 50.6929 48.7292 50.133 49.055 49.6241C49.2376 49.3311 49.5647 48.9021 49.7643 48.5623C50.3419 47.5812 50.0956 46.6086 49.7261 45.7847C49.5476 45.4392 49.4053 45.0763 49.3013 44.7016C49.3013 44.6422 49.2758 44.5827 49.2631 44.5233C49.2504 44.4638 49.2631 44.4001 49.2631 44.3746C49.2588 44.3166 49.2588 44.2584 49.2631 44.2005V44.1707V44.1028C49.2631 44.0688 49.2631 44.0391 49.2928 44.0093L49.3353 43.9159C49.3353 43.9159 49.3353 43.8947 49.3353 43.8862C49.3353 43.8607 49.3863 43.8352 49.4118 43.8097L49.4925 43.7587L49.5732 43.7163C49.6612 43.6824 49.7522 43.6568 49.845 43.6398H49.8917H50.0616C50.1875 43.6335 50.3137 43.6335 50.4396 43.6398H50.5755L50.7284 43.6653C50.8685 43.6653 51.0087 43.7205 51.1531 43.7545C51.2975 43.7885 51.4122 43.831 51.5438 43.8734L51.7392 43.9414L51.8369 43.9754L51.9091 44.0051C52.168 44.1136 52.4204 44.237 52.6651 44.3746C52.7755 44.4383 52.886 44.5105 52.9964 44.5827L53.0304 44.6082L53.0771 44.6422L53.2427 44.7738C53.3233 44.8445 53.3999 44.9197 53.4721 44.9989C53.4873 45.0165 53.5014 45.035 53.5145 45.0542L53.6037 45.1901C53.7612 45.4941 53.903 45.8059 54.0285 46.1244C54.1814 46.4897 54.33 46.8762 54.4829 47.2797C54.793 48.1079 55.1073 49.0125 55.4937 50.0361C56.4845 52.6702 57.8522 55.1466 59.5541 57.388C61.9682 60.5212 65.3625 62.7553 69.1952 63.7333C71.8921 64.4256 79.9023 65.5808 79.3374 60.8877C79.1038 58.9849 78.2756 57.2521 77.3965 55.4598C77.0505 54.6976 76.8104 53.8916 76.6829 53.0643C76.6066 52.6851 76.5625 52.3 76.5513 51.9133C76.5449 51.8314 76.5449 51.749 76.5513 51.667V51.6373C76.5523 51.6217 76.5523 51.6061 76.5513 51.5906C76.5716 51.5255 76.5957 51.4617 76.6235 51.3995L76.7084 51.2593C76.7679 51.2083 76.8486 51.1446 76.8698 51.1191L77.0567 51.0469L77.2903 51.0129C77.4092 51.0129 77.5281 51.0129 77.6513 51.0129C77.6513 51.0129 78.076 51.0427 78.161 51.0554C78.3946 51.0809 78.6367 51.1191 78.8745 51.1574L79.1208 51.1998L79.3544 51.2423C79.6772 51.3103 80.0042 51.3824 80.327 51.4589C83.1896 52.1384 86.065 52.9624 88.9446 53.5443C91.8242 54.1261 94.9671 54.2578 97.7023 53.1705C99.1166 52.5887 101.24 50.6987 99.0784 49.433ZM42.0514 18.1058C42.0514 18.1058 42.0514 18.1397 42.0514 18.1567C42.0514 18.1737 42.0514 18.1567 42.0514 18.1058ZM46.1754 28.35C45.5851 28.35 44.9267 27.7596 44.4765 27.4198C42.9093 26.1457 40.9641 24.4468 40.7263 22.3232C40.4884 20.1996 42.6375 19.3502 43.9839 20.9046C45.2325 22.3529 45.9121 24.1537 46.8082 25.8144C47.233 26.6553 47.6917 28.3542 46.1754 28.35ZM54.1729 72.6014C54.1729 72.6014 54.1729 72.6014 54.1729 72.5759C54.1856 72.7883 54.1686 72.7203 54.1729 72.6014ZM50.0064 38.1992C49.9596 38.2756 49.9724 38.2247 50.0064 38.1992V38.1992ZM50.5967 27.6577C50.0616 27.5345 49.7218 26.9611 49.4373 26.5364C48.9888 25.8745 48.5899 25.1803 48.2438 24.4595C47.972 23.8819 47.5515 23.1132 47.6109 22.4506C47.7723 20.7093 49.6454 20.722 50.3844 22.0811C50.916 23.2279 51.3425 24.4206 51.6585 25.6445C51.8709 26.4302 51.8709 27.9465 50.5967 27.6577Z" fill="white"/>
</g>
<defs>
<clipPath id="clip0_792_816">
<rect width="100" height="88.0484" fill="white"/>
</clipPath>
</defs>
</svg>
