<svg width="100" height="75" viewBox="0 0 100 75" fill="none" xmlns="http://www.w3.org/2000/svg">
<g clip-path="url(#clip0_792_817)">
<path d="M66.5478 40.827C66.8553 40.7146 67.1742 40.6361 67.4989 40.593C68.4096 40.4418 69.3292 40.35 70.2519 40.318C72.1541 40.2289 74.0786 40.2511 75.992 40.2511C78.7858 40.2511 81.5872 40.2734 84.3773 40.2511C88.7056 40.2511 94.6017 40.7044 98.0606 38.3749C99.2978 37.5427 100.241 36.339 99.9442 34.6894C99.6133 33.0977 98.9289 31.6008 97.9418 30.3091C97.1035 29.2069 95.99 28.3446 94.7132 27.8087C94.0216 27.4917 93.2708 27.3246 92.51 27.3183C91.6621 27.295 90.8252 27.5155 90.0988 27.9536C89.5156 28.3291 89.0658 28.8791 88.8133 29.5252C88.6572 29.8877 88.6032 30.286 88.6573 30.6769C88.7279 31.42 89.1811 32.1185 89.6418 32.8169C90.12 33.4351 90.5055 34.1197 90.7862 34.8492C90.8304 34.9951 90.8554 35.1463 90.8604 35.2987C90.8679 35.3703 90.8679 35.4425 90.8604 35.5142C90.8603 35.5775 90.845 35.64 90.8159 35.6962C90.7551 35.8532 90.6637 35.9964 90.5469 36.1176C90.4302 36.2388 90.2905 36.3355 90.136 36.4021L90.0282 36.4616L89.9168 36.5099C89.7979 36.5619 89.6678 36.6065 89.5452 36.6511C89.2354 36.7497 88.9188 36.8255 88.5979 36.8777C87.6144 37.0373 86.6215 37.1317 85.6256 37.1601C84.2027 37.2195 82.776 37.2046 81.3568 37.2009C79.9376 37.1972 78.4998 37.2009 77.0731 37.2009C74.3127 37.2009 71.4779 37.2864 68.7583 36.7662C68.1235 36.6592 67.5364 36.3611 67.0753 35.9117C66.8924 35.7875 66.7605 35.6015 66.7038 35.3879C66.7038 35.3247 66.8487 35.1947 66.9527 35.0981C67.2957 34.796 67.7167 34.5965 68.1676 34.5222C69.2142 34.3625 70.279 34.3625 71.3256 34.5222C73.6365 34.7971 75.9771 35.0869 78.2992 35.347C80.5538 35.6432 82.8242 35.8032 85.0981 35.8263C86.5099 35.8263 87.6765 35.4919 87.3272 34.9941C87.0894 34.6745 86.3984 34.3662 85.8189 34.121C84.7786 33.6826 83.69 33.2925 82.6126 32.9284C76.527 30.8775 70.0698 29.3506 64.2777 26.6867C62.4347 25.82 60.6479 24.8384 58.9278 23.748C57.5903 22.9194 54.1351 19.9324 52.6675 21.333C52.4607 21.5563 52.2845 21.8062 52.1437 22.0761C52.0657 22.2024 51.9839 22.3287 51.891 22.4476L51.8427 22.5108L51.7908 22.5665C51.7217 22.6378 51.6471 22.7037 51.5678 22.7634C51.2353 23.0028 50.833 23.1256 50.4235 23.1127C49.8365 23.1294 49.2515 23.0349 48.6996 22.834C48.3829 22.7321 48.0738 22.608 47.7746 22.4625C47.3473 22.2656 46.9386 22.0538 46.5411 21.8272C45.7004 21.3542 44.8979 20.8164 44.141 20.2185C42.4432 18.8408 40.8636 17.3234 39.4189 15.6821C38.1111 14.222 36.8368 12.7099 35.2578 11.5953C34.1433 10.8151 32.1593 10.295 31.1227 11.1532C30.6749 11.5077 30.3191 11.965 30.0856 12.4863C29.8521 13.0076 29.7478 13.5775 29.7815 14.1477C29.8226 15.6213 30.1705 17.0702 30.8032 18.4017C32.4268 21.7454 34.9978 24.4204 37.9848 26.5753C40.318 28.2657 42.9633 29.6404 45.5751 30.9816C46.0841 31.2416 46.6005 31.498 47.0835 31.7543C47.326 31.8778 47.5616 32.0142 47.7894 32.163C47.8897 32.2336 47.9826 32.3005 48.0718 32.3711C48.1609 32.4417 48.2687 32.5457 48.2687 32.542C48.3093 32.5888 48.3466 32.6384 48.3801 32.6906C48.3801 32.7129 48.4136 32.7872 48.4247 32.8095C48.4284 32.8441 48.4284 32.8789 48.4247 32.9135C48.4107 32.9361 48.3946 32.9573 48.3764 32.9767C48.3764 32.9767 48.3393 33.0101 48.3207 33.0287C48.2549 33.0678 48.1867 33.1026 48.1164 33.1327L47.9863 33.1736C47.8934 33.2033 47.7894 33.2256 47.6854 33.2516L47.3993 33.3073L46.972 33.3705C46.4742 33.4336 46.5485 33.4225 46.0804 33.4559C45.2519 33.5191 44.3825 33.5488 43.5206 33.5525C41.44 33.5525 39.3335 33.4894 37.2529 33.3593C32.8604 33.1257 28.4928 32.5493 24.1901 31.6354C23.4136 31.4645 22.6371 31.2639 21.8903 31.0224L21.4445 30.8738H21.411L21.1287 30.7549C20.6677 30.559 20.2312 30.3096 19.8283 30.0119C19.1267 29.5095 18.5415 28.8619 18.1126 28.1131C17.6837 27.3643 17.4211 26.5318 17.3428 25.6725C16.9713 21.3256 19.7949 17.3763 22.351 14.2295C23.6365 12.6505 25.0557 11.1198 26.4378 9.57793C27.9722 7.84662 29.8187 5.55802 29.2725 3.07623C28.6929 0.434674 25.639 -0.104019 23.4359 -0.107735C20.5825 -0.107735 17.8258 1.25203 15.6932 3.03164C13.1699 5.21107 11.0985 7.86433 9.59651 10.8411C8.18384 13.5248 7.18195 16.4052 6.6243 19.3862C6.26123 21.5529 6.08471 23.7468 6.09672 25.9437C6.07814 28.4663 6.81378 30.6583 8.52651 32.3785C12.2418 36.1272 19.3974 35.7966 24.5021 35.804C30.584 35.804 36.6659 35.804 42.7404 36.0306C45.2816 36.1309 48.042 36.1384 50.4532 36.9854C50.5707 37.0263 50.685 37.076 50.7951 37.1341L50.8619 37.1712C50.8619 37.1712 50.8619 37.1712 50.8879 37.2083C50.9947 37.3129 51.0772 37.4398 51.1294 37.5799C51.2584 37.9802 51.3137 38.4007 51.2929 38.8208C51.336 39.6598 51.1727 40.4967 50.8174 41.258C50.7864 41.3215 50.7504 41.3824 50.7096 41.44L50.6836 41.4772H50.665C50.3716 41.7218 50.0497 41.9301 49.7065 42.0976C49.1083 42.3949 48.0346 42.4692 47.1058 42.3911C46.5708 42.3428 46.5225 42.276 46.3627 42.0531C46.2269 41.8294 46.1573 41.5717 46.1621 41.31C46.1138 40.905 46.2996 40.344 45.8537 40.0171C44.8358 39.274 43.1788 39.1997 41.9007 39.0957C40.2138 38.9799 38.5213 38.97 36.8331 39.066C33.6826 39.2034 30.5171 39.4375 27.374 39.575C25.7802 39.6419 24.164 39.6679 22.5442 39.7273C18.7992 39.861 14.9465 39.9428 11.3501 40.7193C8.19956 41.3954 5.03416 42.7329 2.71212 45.1776C1.72174 46.2367 0.972732 47.4979 0.516704 48.8743C0.0606758 50.2507 -0.0915271 51.7096 0.070573 53.1505C0.356648 55.911 1.77587 58.5748 3.15052 61.1123C4.76037 64.1365 6.8072 66.9069 9.22499 69.3342C11.573 71.6525 14.6195 73.7331 18.0042 74.112C20.2333 74.361 23.291 73.7814 24.3535 71.5745C25.1932 69.8358 24.3238 67.7441 23.4061 66.2097C21.3516 62.7731 18.4723 59.8157 16.2468 56.498C14.1254 53.3437 11.4727 48.6142 16.0574 46.1287C18.58 44.7615 21.5485 44.3268 24.3312 43.7695C27.3926 43.1565 30.4763 42.6549 33.5748 42.2834C35.778 42.0382 38.0926 41.7856 40.3031 42.1534C40.3031 42.1534 40.5855 42.2277 40.6524 42.25H40.6784H40.7193C40.7768 42.2747 40.8327 42.3032 40.8864 42.3354H40.905L40.931 42.3577C40.9683 42.3899 41.0019 42.426 41.0313 42.4654V42.5063C41.0648 42.5955 41.0313 42.5806 41.0313 42.6364C41.0536 42.5806 41.0053 42.6364 40.9793 42.6847L40.8604 42.7664C40.7226 42.8343 40.5798 42.8914 40.4332 42.9373C39.9806 43.0764 39.5204 43.1893 39.0548 43.2754C38.8505 43.3162 38.3118 43.4017 37.9402 43.4537C37.7396 43.4834 37.5353 43.5131 37.3347 43.5354C35.3693 43.7472 33.3742 43.8624 31.3902 43.9887C28.0837 44.1967 24.7622 44.4271 21.7306 45.6977C20.2444 46.3256 18.4611 47.4811 18.1305 49.1083C17.8258 50.5944 18.0933 51.984 18.6394 53.4589C19.9695 57.0479 23.0346 59.864 26.2446 61.8814C28.5889 63.3675 32.5828 64.9948 34.8937 62.5316C36.0083 61.3427 36.3798 59.2733 35.8671 57.9209C35.3544 56.5686 33.9538 55.6026 32.9246 54.4769C32.5197 54.0385 32.3599 53.5555 32.6534 53.0614C33.2665 52.0285 34.5408 51.4007 35.6256 50.9065C38.8505 49.4501 42.3131 48.6179 45.7683 47.8823C49.3647 47.1132 53.0205 46.4408 56.6466 45.8835C58.6491 45.5751 60.6962 45.3151 62.7062 45.1404C64.2443 45.0141 65.8196 44.9584 67.38 44.8915C72.5814 44.6798 77.7827 44.5869 82.9358 45.2185C84.708 45.434 86.7588 45.6606 88.3118 46.6414C89.4486 47.3584 88.4381 48.499 87.7991 49.1009C87.0189 49.8142 85.9415 50.6725 86.0529 51.7016C86.1718 52.9016 88.0406 53.901 89.2703 54.1239C90.6442 54.3126 92.037 53.9507 93.1453 53.1171C94.11 52.4144 94.9836 51.5944 95.746 50.6762C96.5745 49.7065 97.429 48.7331 98.1684 47.704C99.283 46.1473 98.852 44.676 97.4736 43.7138C97.4286 43.6842 97.3814 43.6581 97.3325 43.6358H97.3101C95.4859 42.6921 93.1788 42.5843 91.1465 42.4246C88.4492 42.2128 85.7334 42.1274 83.025 42.0753C80.8998 42.0345 78.7598 42.001 76.6421 42.0233C74.0897 42.0568 71.5039 42.1422 68.959 42.0568C68.1949 42.058 67.4337 41.9644 66.6926 41.7781C66.4802 41.6973 66.2957 41.5566 66.1614 41.3732C66.1154 41.3236 66.0875 41.2599 66.0821 41.1925C66.0767 41.1251 66.0942 41.0579 66.1317 41.0016C66.2514 40.9059 66.3955 40.8454 66.5478 40.827ZM62.435 30.8292C61.8588 30.8328 61.2837 30.778 60.7185 30.6658C60.0944 30.5655 59.4702 30.4577 58.8609 30.3351C57.683 30.1066 56.5174 29.8189 55.3685 29.4732C54.8484 29.3171 50.7728 27.4929 52.9276 27.1363C53.8602 26.9839 54.8447 27.3109 55.7215 27.6527C56.8361 28.0948 57.9804 28.5852 59.0949 29.0496C60.0683 29.4509 61.09 29.7927 62.0672 30.2199C62.3332 30.3181 62.577 30.4684 62.7842 30.662C62.8585 30.7698 62.695 30.8032 62.435 30.8292ZM60.3396 27.8013C60.3135 27.2998 61.8257 27.545 62.5316 27.8682C63.2375 28.1914 63.8542 28.5406 64.4524 28.8824C64.9665 29.132 65.463 29.4163 65.9385 29.7332C66.0424 29.8066 66.1246 29.9068 66.1763 30.023C66.1763 30.075 66.1763 30.0899 66.1763 30.1271C66.1586 30.1453 66.137 30.1593 66.1131 30.1679C65.6598 30.3091 64.5155 29.8818 64.1626 29.763C63.3458 29.4892 62.5468 29.1654 61.7699 28.7933C61.1532 28.4998 60.3581 28.1505 60.3396 27.8013Z" fill="white"/>
</g>
<defs>
<clipPath id="clip0_792_817">
<rect width="100" height="74.1641" fill="white"/>
</clipPath>
</defs>
</svg>
